<svg width="442" height="442" viewBox="0 0 442 442" fill="none" xmlns="http://www.w3.org/2000/svg">
<circle cx="221" cy="221" r="221" fill="#0F458C"/>
<path d="M181.555 149.374C186.202 149.29 190.848 149.232 195.496 149.193C197.077 149.176 198.659 149.153 200.24 149.125C202.511 149.085 204.781 149.066 207.053 149.052C208.116 149.026 208.116 149.026 209.201 149C214.044 148.998 214.044 148.998 215.735 150.607C216.07 151.628 216.07 151.628 216.412 152.67C216.59 153.151 216.768 153.631 216.951 154.126C217.621 155.953 218.236 157.793 218.847 159.64C219.08 160.333 219.313 161.027 219.553 161.741C220.055 163.236 220.556 164.732 221.055 166.229C222.388 170.229 223.735 174.225 225.08 178.221C225.351 179.027 225.622 179.833 225.901 180.663C228.25 187.642 230.664 194.597 233.1 201.546C237.191 213.227 241.163 224.947 245.115 236.675C249.383 249.341 253.706 261.985 258.122 274.6C258.313 275.145 258.503 275.69 258.7 276.251C259.047 277.242 259.394 278.232 259.742 279.222C260.051 280.104 260.358 280.987 260.662 281.871C261.002 282.846 261.354 283.818 261.713 284.786C261.9 285.307 262.087 285.828 262.28 286.365C262.54 287.072 262.54 287.072 262.806 287.793C263.107 289.159 263.107 289.159 262.449 291.796C253.551 291.796 244.653 291.796 235.485 291.796C233.453 286.908 231.482 282.078 229.717 277.1C229.503 276.499 229.288 275.899 229.068 275.28C228.622 274.03 228.177 272.779 227.733 271.527C227.051 269.605 226.364 267.685 225.677 265.764C225.242 264.543 224.808 263.321 224.373 262.099C224.065 261.238 224.065 261.238 223.751 260.359C223.564 259.83 223.377 259.302 223.184 258.757C222.936 258.059 222.936 258.059 222.683 257.347C222.331 256.191 222.331 256.19 222.331 254.872C206.704 255.089 191.078 255.307 174.978 255.531C171.138 266.725 171.138 266.725 167.304 277.921C166.822 279.322 166.34 280.723 165.858 282.125C165.609 282.855 165.36 283.585 165.104 284.337C164.863 285.033 164.623 285.729 164.376 286.446C164.168 287.051 163.961 287.655 163.747 288.278C163.14 289.818 163.14 289.818 161.824 291.796C159.958 291.972 158.237 292.026 156.373 291.989C155.834 291.986 155.296 291.984 154.742 291.981C153.019 291.97 151.297 291.945 149.575 291.92C148.409 291.91 147.242 291.901 146.076 291.893C143.214 291.871 140.352 291.837 137.49 291.796C136.255 288.34 137.605 285.57 138.775 282.287C138.99 281.662 139.205 281.038 139.426 280.394C139.896 279.032 140.37 277.671 140.846 276.311C141.878 273.367 142.892 270.417 143.907 267.468C144.446 265.904 144.985 264.34 145.525 262.776C148.28 254.792 150.941 246.778 153.593 238.76C157.259 227.679 160.944 216.605 164.721 205.562C165.271 203.952 165.82 202.343 166.369 200.733C166.549 200.206 166.728 199.678 166.913 199.135C167.276 198.069 167.639 197.004 168.002 195.938C169.009 192.983 170.02 190.03 171.034 187.077C172.178 183.746 173.312 180.412 174.441 177.075C174.872 175.805 175.307 174.536 175.745 173.268C178.477 165.354 180.474 157.685 181.555 149.374Z" fill="white"/>
<path d="M280.705 186.068C281.257 186.069 281.809 186.07 282.377 186.072C282.94 186.071 283.503 186.07 284.083 186.07C285.275 186.069 286.468 186.071 287.66 186.073C289.492 186.077 291.324 186.073 293.156 186.069C294.311 186.07 295.467 186.07 296.623 186.072C297.175 186.07 297.726 186.069 298.295 186.068C302.16 186.084 302.16 186.084 302.908 186.82C302.974 188.166 302.992 189.513 302.993 190.86C302.994 191.286 302.995 191.713 302.996 192.152C302.999 193.592 302.997 195.031 302.994 196.471C302.995 197.499 302.997 198.527 302.998 199.555C303.001 202.354 303 205.153 302.998 207.952C302.996 210.875 302.998 213.798 302.999 216.721C303 221.631 302.998 226.54 302.995 231.45C302.992 237.134 302.993 242.819 302.996 248.503C302.999 253.375 303 258.246 302.998 263.118C302.997 266.031 302.997 268.945 302.999 271.858C303.001 274.597 303 277.335 302.996 280.073C302.995 281.081 302.995 282.089 302.997 283.097C302.999 284.467 302.996 285.838 302.993 287.208C302.993 287.976 302.992 288.745 302.992 289.537C302.908 291.247 302.908 291.247 302.237 291.908C300.36 291.975 298.5 292 296.623 291.996C296.06 291.997 295.497 291.997 294.917 291.998C293.725 291.998 292.532 291.997 291.34 291.994C289.508 291.991 287.676 291.994 285.844 291.999C284.689 291.998 283.533 291.997 282.377 291.996C281.825 291.997 281.274 291.999 280.705 292C276.84 291.984 276.84 291.984 276.092 291.247C276.026 289.902 276.008 288.555 276.007 287.208C276.006 286.781 276.005 286.355 276.004 285.915C276.001 284.476 276.003 283.036 276.006 281.597C276.005 280.569 276.003 279.541 276.002 278.513C275.999 275.714 276 272.914 276.002 270.115C276.004 267.192 276.002 264.269 276.001 261.346C276 256.437 276.002 251.527 276.005 246.618C276.008 240.933 276.007 235.249 276.004 229.564C276.001 224.693 276 219.821 276.002 214.95C276.003 212.037 276.003 209.123 276.001 206.21C275.999 203.471 276 200.733 276.004 197.994C276.005 196.986 276.005 195.978 276.003 194.97C276.001 193.6 276.004 192.23 276.007 190.86C276.007 190.091 276.008 189.323 276.008 188.531C276.166 185.333 277.865 186.079 280.705 186.068Z" fill="white"/>
<path d="M197.839 172C199.412 173.56 199.686 174.65 200.33 176.753C200.547 177.457 200.765 178.162 200.989 178.888C201.217 179.644 201.445 180.399 201.68 181.178C201.915 181.947 202.151 182.717 202.394 183.51C203.89 188.424 205.304 193.355 206.656 198.31C207.536 201.496 208.581 204.574 209.761 207.661C212.583 215.273 214.661 223.265 217 231C204.79 231 192.58 231 180 231C182.991 219.128 182.991 219.128 184.584 214.693C185.93 210.817 187.144 206.934 188.218 202.975C189.61 197.843 191.214 192.794 192.865 187.739C194.299 183.314 195.559 178.871 196.699 174.364C197.179 172.656 197.179 172.656 197.839 172Z" fill="#0F458C"/>
<path d="M297.065 141.322C300.645 143.177 303.323 146.14 305.101 149.741C306.44 153.99 306.275 159.013 304.664 163.167C302.659 167.018 299.614 169.645 295.676 171.389C290.749 172.129 285.786 172.675 281.339 170.054C277.772 167.304 275.424 164.361 274.269 159.976C273.738 154.991 273.711 150.312 276.884 146.231C278.296 144.731 279.783 143.496 281.459 142.304C282.309 141.696 282.309 141.696 283.175 141.077C287.635 139.588 292.657 139.618 297.065 141.322Z" fill="white"/>
</svg>
