<?xml version="1.0" encoding="UTF-8"?>
<svg version="1.1" xmlns="http://www.w3.org/2000/svg" width="3172" height="2465">
<path d="M0 0 C1046.76 0 2093.52 0 3172 0 C3172 813.45 3172 1626.9 3172 2465 C2125.24 2465 1078.48 2465 0 2465 C0 1651.55 0 838.1 0 0 Z " fill="#FEFEFE" transform="translate(0,0)"/>
<path d="M0 0 C14.08795608 11.2877306 24.96508111 27.75906036 27 46 C27.23491715 49.87577379 27.33308036 53.74261989 27.375 57.625 C27.38909912 58.57882568 27.40319824 59.53265137 27.41772461 60.51538086 C27.29265778 78.90653756 18.60959567 96.21832884 6.0625 109.375 C-4.40747847 119.2035371 -18.2070911 126.99424071 -32.65380859 128.53613281 C-33.46691498 128.62372864 -34.28002136 128.71132446 -35.11776733 128.80157471 C-35.73890411 128.86705505 -36.36004089 128.9325354 -37 129 C-37.0410083 130.20467926 -37.0820166 131.40935852 -37.12426758 132.65054321 C-37.8196218 151.29680579 -39.17243182 169.89408529 -40.49161148 188.50402784 C-40.82445652 193.20968526 -41.15361451 197.91560064 -41.4831543 202.62149048 C-42.10643927 211.51483772 -42.73263509 220.40797721 -43.36006832 229.30103266 C-44.48318119 245.22117373 -45.60109428 261.14168049 -46.71818638 277.06224501 C-47.10895727 282.62980755 -47.5009433 288.19728274 -47.89401245 293.76468349 C-48.13936915 297.2420385 -48.38394709 300.71944802 -48.62836838 304.1968689 C-48.74048092 305.78942904 -48.85292276 307.38196604 -48.96574783 308.97447586 C-49.72158188 319.64559662 -50.39327482 330.3193524 -51 341 C-50.02582626 341.11288361 -49.05165253 341.22576721 -48.04795837 341.34207153 C-35.27230633 342.82943823 -22.58091742 344.87393228 -9.87939453 346.88623047 C-5.98149658 347.50292748 -2.08259743 348.11299386 1.81640625 348.72265625 C4.31516707 349.11678887 6.81386722 349.51130642 9.3125 349.90625 C10.46782227 350.08651733 11.62314453 350.26678467 12.81347656 350.45251465 C18.63988056 351.38126483 24.29476894 352.50353315 30 354 C34.00662451 354.79356531 38.03356092 355.45475135 42.0625 356.125 C43.11244141 356.30675781 44.16238281 356.48851562 45.24414062 356.67578125 C50.56870776 357.56711848 55.6010684 358.22974177 61 358 C61.30550781 357.29617188 61.61101563 356.59234375 61.92578125 355.8671875 C70.93948565 336.41789857 85.34221185 323.10900555 105.09375 314.6796875 C124.06750296 308.09413732 145.40136318 311.155042 163.1875 319.5625 C171.00312985 323.50470558 176.96077879 328.73813469 183 335 C183.66386719 335.63292969 184.32773438 336.26585937 185.01171875 336.91796875 C197.96756563 350.10672973 202.19902044 369.70778364 202.11767578 387.57177734 C201.41868471 401.99535667 195.46144021 415.01577433 187.16015625 426.58984375 C185.72169038 428.86350448 185.72169038 428.86350448 186.60083008 430.81176758 C188.45711082 433.71489867 190.7783866 436.02498316 193.2265625 438.421875 C193.73424164 438.92672424 194.24192078 439.43157349 194.76498413 439.95172119 C196.38033842 441.55592096 198.00252209 443.15300856 199.625 444.75 C200.72441698 445.83938107 201.82338059 446.9292199 202.921875 448.01953125 C205.6093602 450.68501885 208.30299021 453.34415143 211 456 C214.02193876 454.5494694 216.22895789 453.03845429 218.6875 450.75 C229.41919598 441.23469369 243.00938984 433.63425057 257.05859375 430.47265625 C258.99353274 430.17972444 258.99353274 430.17972444 260 429 C267.71114395 427.05653356 275.39281474 426.61537559 283.3125 426.625 C284.42737793 426.62371094 285.54225586 426.62242187 286.69091797 426.62109375 C297.73555894 426.75881919 308.25017934 428.5872146 319 431 C319.32871094 429.59814453 319.32871094 429.59814453 319.6640625 428.16796875 C321.4991525 420.51121393 323.57024491 412.99040647 326 405.5 C328.10925791 398.99454244 329.94789413 392.49500569 331.53125 385.84326172 C332.65399834 381.19568671 334.01784647 376.66956075 335.5 372.125 C338.28631449 363.5524677 340.17285724 354.81928125 342 346 C341.31035156 345.5875 340.62070313 345.175 339.91015625 344.75 C329.30114806 338.23033516 321.96104684 332.00350614 316 321 C315.34 320.01 314.68 319.02 314 318 C313.58578198 316.30522561 313.23569173 314.59398764 312.9375 312.875 C312.58395374 309.63891608 312.58395374 309.63891608 311 307 C310.08682327 290.75599093 311.53647186 275.95396076 322.484375 263.078125 C331.08988267 253.84932121 342.45142637 245.69991541 355.4284668 244.83886719 C358.18159926 244.79300387 360.93401811 244.76475409 363.6875 244.75 C364.63044922 244.729375 365.57339844 244.70875 366.54492188 244.6875 C379.51092717 244.61620925 391.2952412 249.21430787 400.75 258.1875 C411.86428689 270.07720226 416.63888752 282.51039328 416.47290039 298.63208008 C415.92380463 314.35050431 408.35514294 327.36014165 397 338 C385.72191523 346.73842716 373.20410854 350.79693018 359 350 C357.65782611 349.70426677 356.31986964 349.38318796 355 349 C354.78085938 349.92296875 354.56171875 350.8459375 354.3359375 351.796875 C352.07250026 361.16821365 349.43979396 370.38780196 346.6328125 379.609375 C344.59529081 386.30584894 342.64340924 393.0268345 340.69189453 399.7487793 C339.14157345 405.08796115 337.58091166 410.42369102 336 415.75390625 C335.51358032 417.40084473 335.51358032 417.40084473 335.01733398 419.08105469 C334.39242618 421.19593059 333.7644532 423.3099038 333.13305664 425.42285156 C332.85324951 426.37256836 332.57344238 427.32228516 332.28515625 428.30078125 C332.03644775 429.13778564 331.78773926 429.97479004 331.53149414 430.8371582 C330.8806805 433.11435602 330.8806805 433.11435602 331 436 C331.70382812 436.31710937 332.40765625 436.63421875 333.1328125 436.9609375 C357.85103314 448.64239425 377.36415055 469.50360049 386.85693359 495.33154297 C395.59368759 521.68404392 395.21162335 552.42718747 382.92602539 577.63110352 C369.30520636 603.86074584 347.33631281 624.43923061 319 634 C313.39814327 635.61700496 307.71518715 636.85813371 302 638 C301.05640625 638.19335938 300.1128125 638.38671875 299.140625 638.5859375 C284.50076716 640.51606801 270.10782024 639.11817874 256 635 C255.02289062 634.72285156 254.04578125 634.44570313 253.0390625 634.16015625 C237.1125896 628.97090007 223.70245251 619.79607214 212 608 C211.35417969 607.38898437 210.70835937 606.77796875 210.04296875 606.1484375 C204.63845051 600.98285585 200.00350869 595.32469192 196 589 C196 588.34 196 587.68 196 587 C188.87716929 589.5129817 181.90298056 592.23635075 174.98828125 595.2734375 C174.06878189 595.67409927 173.14928253 596.07476105 172.20191956 596.48756409 C169.23739757 597.78023582 166.27494387 599.07757387 163.3125 600.375 C161.25485001 601.27316563 159.19706889 602.17103089 157.13916016 603.06860352 C151.09079026 605.70787761 145.04499701 608.35301122 139 611 C138.13820129 611.37731262 137.27640259 611.75462524 136.38848877 612.14337158 C134.02066245 613.18010504 131.65290371 614.2169927 129.28515625 615.25390625 C128.5546254 615.57375488 127.82409454 615.89360352 127.07142639 616.22314453 C123.74634753 617.67912399 120.42182836 619.13633907 117.09887695 620.59716797 C110.64179319 623.43050982 104.16712362 626.19333699 97.62548828 628.82641602 C94.93562313 630.02877623 92.51261883 631.46690767 90 633 C87.95326297 633.83157074 85.88915091 634.62123389 83.8125 635.375 C78.92536221 637.20699104 74.34400875 639.27978979 69.72070312 641.68652344 C66.88593688 643.05506637 64.03355314 644.16472536 61.08203125 645.2578125 C53.82023805 648.0186631 46.75749875 651.16117313 39.6875 654.375 C37.7763288 655.23886347 35.86455776 656.10138876 33.95271301 656.96376038 C32.70269588 657.52762378 31.45284558 658.09185719 30.20317078 658.65647888 C23.16338378 661.83519533 16.08791209 664.93043177 9 668 C9.144375 669.01835938 9.28875 670.03671875 9.4375 671.0859375 C10.86856686 681.7806751 11.22697783 692.21855309 11 703 C13.74388355 703.50812658 16.48777335 704.01621915 19.23168945 704.52416992 C21.64048434 704.97038903 24.04917403 705.41717632 26.45776367 705.86450195 C32.83409782 707.04788003 39.21186791 708.22188735 45.59375 709.375 C46.80442139 709.59518799 48.01509277 709.81537598 49.26245117 710.04223633 C51.58750176 710.46484197 53.91316781 710.88407863 56.23950195 711.29956055 C57.83217896 711.59020386 57.83217896 711.59020386 59.45703125 711.88671875 C60.38491455 712.05389404 61.31279785 712.22106934 62.26879883 712.39331055 C65 713 65 713 67.46502209 713.89043331 C72.33893386 715.42026752 77.28358304 716.36668731 82.29084778 717.35975647 C84.00410445 717.70427979 84.00410445 717.70427979 85.75197238 718.05576319 C88.91293188 718.6905901 92.07455672 719.32197174 95.23649943 719.95187962 C98.65023968 720.63281586 102.06309066 721.31818261 105.47605896 722.00297546 C112.15922794 723.34316568 118.84322174 724.67919723 125.52752093 726.01373775 C130.96187928 727.09880197 136.3959351 728.18536917 141.82977867 729.27300835 C142.60346837 729.42786887 143.37715807 729.5827294 144.17429292 729.74228267 C145.74611282 730.05690244 147.31793203 730.37152565 148.88975056 730.68615227 C163.62817026 733.6361173 178.36752925 736.58136675 193.10721376 739.52500462 C205.74612128 742.04921385 218.38421767 744.57745047 231.02172852 747.10864258 C245.70322031 750.04922569 260.38520982 752.98730347 275.06799811 755.92140669 C276.63492406 756.23453704 278.20184937 756.54767061 279.76877403 756.86080742 C280.53968857 757.01486691 281.31060311 757.16892639 282.1048787 757.32765435 C287.52919126 758.41182705 292.95314546 759.49778093 298.37696266 760.58442879 C304.99174667 761.90963328 311.60707502 763.23207952 318.22310833 764.55103333 C321.59672312 765.22365893 324.97008387 765.89749394 328.34278488 766.57468796 C332.00388993 767.30909696 335.66591117 768.03875442 339.32820129 768.76722717 C340.38735853 768.9808432 341.44651576 769.19445922 342.53776866 769.41454846 C348.35266678 770.56526919 354.09841288 771.43582283 360 772 C360.20625 771.21625 360.4125 770.4325 360.625 769.625 C367.58282084 751.28165415 383.23870325 738.83018906 400.56640625 730.8125 C418.67130582 723.10587608 439.81857264 724.27518138 458.0625 731.0625 C477.81313475 739.92632934 491.95445996 756.16776012 500.02734375 775.98828125 C506.53794513 796.14761323 504.67596705 818.10603231 495.1875 836.875 C484.78340305 854.54083975 468.81941151 867.79090072 449.10668945 873.61474609 C430.33959014 878.28301242 409.15945928 875.75818802 392 867 C387.68194147 864.3259252 383.83572627 861.32323943 380 858 C379.06414062 857.19949219 378.12828125 856.39898438 377.1640625 855.57421875 C364.78629385 844.14991967 358.00879665 830.42538048 355 814 C354.80664062 813.13503906 354.61328125 812.27007813 354.4140625 811.37890625 C353.69899656 807.27065006 353.94459467 803.15540004 354 799 C353.45867432 798.96551758 352.91734863 798.93103516 352.35961914 798.89550781 C344.23693292 798.24084107 336.37825728 796.49847487 328.4375 794.75 C319.0281178 792.6957502 309.6097835 790.70585657 300.16333008 788.82861328 C289.82408191 786.76707632 279.487857 784.69095079 269.15332031 782.60595703 C267.62907317 782.29848275 266.104826 781.99100861 264.5805788 781.68353462 C262.21175558 781.20566827 259.84293709 780.72777846 257.47412843 780.2498399 C251.56847396 779.05831967 245.6626669 777.86755789 239.7567749 776.67721558 C238.45004802 776.41384185 238.45004802 776.41384185 237.11692262 776.14514744 C233.53987984 775.4242021 229.96283195 774.70328213 226.38578081 773.98237824 C216.37364457 771.96454708 206.36165155 769.94601168 196.35009766 767.92529297 C188.31398632 766.3033003 180.27754905 764.68293291 172.2407558 763.06432235 C168.02495128 762.21520088 163.80929121 761.36537978 159.59403229 760.51355362 C140.66976213 756.68984901 121.73006397 752.97275681 102.75545216 749.40682316 C92.28758309 747.43904626 81.83296085 745.41575797 71.39457512 743.29675484 C68.87483372 742.78545956 66.35442815 742.27753895 63.83387756 741.77024841 C56.70470827 740.3349279 49.57658807 738.89444141 42.44897461 737.45141602 C38.00441365 736.55181679 33.55911683 735.6559333 29.11334419 734.76234245 C27.44449038 734.42610091 25.77592923 734.08840323 24.10767937 733.74917793 C21.80937085 733.2818568 19.51016278 732.81923548 17.21069336 732.35766602 C16.53514404 732.21905151 15.85959473 732.08043701 15.16357422 731.93762207 C12.00198765 731.30794296 9.24850915 731 6 731 C5.50371094 732.11117187 5.00742188 733.22234375 4.49609375 734.3671875 C-1.38311607 747.32886889 -8.20490527 757.60418396 -18 768 C-18.99580078 769.12728516 -18.99580078 769.12728516 -20.01171875 770.27734375 C-31.87929073 783.13953129 -48.31236704 790.47768884 -64.8125 795.3125 C-65.72088623 795.5796582 -66.62927246 795.84681641 -67.56518555 796.12207031 C-68.43699463 796.36666992 -69.30880371 796.61126953 -70.20703125 796.86328125 C-70.9853833 797.08282471 -71.76373535 797.30236816 -72.56567383 797.52856445 C-75.41583327 798.08053094 -78.10271204 798.02997617 -81 798 C-80.93655899 799.2289801 -80.87311798 800.45796021 -80.80775452 801.72418213 C-80.10297526 815.72361477 -79.63493045 829.72298897 -79.24609375 843.734375 C-79.18030862 846.06911345 -79.11447604 848.40385056 -79.04859924 850.73858643 C-78.91183603 855.60611986 -78.77680528 860.47369788 -78.64282227 865.34130859 C-78.50721982 870.25904388 -78.368509 875.17667501 -78.22680664 880.09423828 C-77.45009834 907.06605927 -76.71402243 934.01519457 -77 961 C-76.38525314 961.06629608 -75.77050629 961.13259216 -75.13713074 961.20089722 C-74.32899429 961.2891275 -73.52085785 961.37735779 -72.68823242 961.46826172 C-71.48767464 961.59864334 -71.48767464 961.59864334 -70.26286316 961.73165894 C-51.11382462 964.0024429 -35.5335719 974.84517004 -23 989 C-9.99568514 1005.99398816 -7.79733366 1025.36845757 -9.20703125 1046.03515625 C-11.5462683 1063.07816907 -22.17031998 1079.02095454 -35 1090 C-52.14687244 1102.63721951 -71.54789665 1108.32085563 -92.73046875 1105.50390625 C-109.4815404 1102.21318518 -121.84589156 1094.72871464 -134 1083 C-134.6290625 1082.40832031 -135.258125 1081.81664062 -135.90625 1081.20703125 C-149.26158642 1067.45710535 -153.31897558 1047.71654376 -153.38500977 1029.265625 C-153.09116684 1010.89170634 -144.75930942 994.96621714 -132 982 C-131.45988281 981.37609375 -130.91976562 980.7521875 -130.36328125 980.109375 C-120.04163303 968.56576843 -103.8707903 963.03609126 -89 961 C-89.06344101 960.09190079 -89.12688202 959.18380157 -89.19224548 958.2481842 C-90.11153766 944.34285276 -90.41858396 930.4255114 -90.75390625 916.49609375 C-90.81956984 913.84261144 -90.88540456 911.1891338 -90.95140076 908.53565979 C-91.0887494 902.99444459 -91.22367253 897.45317428 -91.35717773 891.91186523 C-91.50987608 885.57544204 -91.6667665 879.23913306 -91.82587105 872.90286773 C-91.96397589 867.39821467 -92.09969952 861.89350634 -92.23357147 856.38874871 C-92.31283055 853.12973874 -92.3930547 849.87075876 -92.47497749 846.6118145 C-92.88049837 830.40438806 -93.09121204 814.21261067 -93 798 C-94.24994751 797.94694702 -94.24994751 797.94694702 -95.52514648 797.89282227 C-119.597712 796.73710205 -139.97425321 786.70532098 -158 771 C-158.62519531 770.45988281 -159.25039062 769.91976562 -159.89453125 769.36328125 C-177.02319106 753.43804016 -188.26011985 728.23555618 -189.10888672 705.02197266 C-189.16977718 701.72231362 -189.18559237 698.4251987 -189.1875 695.125 C-189.19974609 694.01769531 -189.21199219 692.91039062 -189.22460938 691.76953125 C-189.26559329 668.51799091 -180.1165236 646.39844429 -164.65234375 629.13671875 C-162.69413221 627.05464803 -162.69413221 627.05464803 -163 624 C-164.2769419 622.23092555 -164.2769419 622.23092555 -166.03515625 620.48828125 C-166.68033203 619.81216797 -167.32550781 619.13605469 -167.99023438 618.43945312 C-168.67408203 617.73755859 -169.35792969 617.03566406 -170.0625 616.3125 C-171.38807158 614.93489421 -172.71229417 613.55598908 -174.03515625 612.17578125 C-175.02153076 611.15218506 -175.02153076 611.15218506 -176.02783203 610.10791016 C-178.61151793 607.34639196 -181.04290753 604.46740172 -183.45483398 601.55541992 C-185.02478554 599.74164422 -185.02478554 599.74164422 -188 599 C-190.70628398 599.88163751 -190.70628398 599.88163751 -193.625 601.25 C-194.70394531 601.71277344 -195.78289062 602.17554688 -196.89453125 602.65234375 C-198.6863322 603.42991775 -200.47643828 604.21147606 -202.26171875 605.00390625 C-212.83730945 609.17371058 -225.51878664 607.88397131 -236 604 C-250.266598 597.64808711 -261.26294451 588.43191137 -267.3515625 573.73828125 C-272.22130215 559.49692032 -272.80608518 545.19879464 -266.78125 531.16015625 C-259.40812317 516.55726894 -247.1503386 506.23263927 -231.79296875 500.8828125 C-217.33371921 497.51742589 -202.06209991 499.61374546 -189.3125 507.125 C-176.23477643 516.15395159 -167.51028376 528.41021037 -164 544 C-163.74266748 546.82004962 -163.71943163 549.60737844 -163.75 552.4375 C-163.74226563 553.14970703 -163.73453125 553.86191406 -163.7265625 554.59570312 C-163.77168519 567.01572399 -168.95669419 577.0689388 -176 587 C-174.71104283 589.81351786 -173.33731495 591.9325707 -171.20703125 594.171875 C-170.66224121 594.7503418 -170.11745117 595.32880859 -169.55615234 595.92480469 C-168.98074707 596.52711914 -168.4053418 597.12943359 -167.8125 597.75 C-166.63315761 598.99909716 -165.45476511 600.24909187 -164.27734375 601.5 C-163.71128418 602.10070312 -163.14522461 602.70140625 -162.56201172 603.3203125 C-160.0788862 605.99050686 -157.71065708 608.75413923 -155.3671875 611.546875 C-153.86490323 613.25320764 -153.86490323 613.25320764 -151 615 C-150.36835937 614.57589844 -149.73671875 614.15179687 -149.0859375 613.71484375 C-134.61198628 604.22543769 -119.93118462 597.32580233 -102.7265625 594.93481445 C-101.46666504 594.75860062 -100.20676758 594.58238678 -98.90869141 594.40083313 C-97.94882324 594.2685582 -96.98895508 594.13628326 -96 594 C-95.95877014 593.2150415 -95.91754028 592.43008301 -95.87506104 591.62133789 C-95.33814951 581.41396968 -94.79595021 571.20688858 -94.25 561 C-94.20547321 560.16732605 -94.16094643 559.3346521 -94.11507034 558.47674561 C-92.83912352 534.64308014 -91.46478953 510.81887755 -89.9375 487 C-88.24403128 460.5671086 -86.81526053 434.12658385 -85.49084473 407.67288208 C-84.96657649 397.23826859 -84.39877894 386.8062947 -83.8125 376.375 C-83.76961853 375.61094849 -83.72673706 374.84689697 -83.68255615 374.05969238 C-83.45668777 370.03970037 -83.22926771 366.01979981 -83 362 C-84.03874268 361.88084229 -85.07748535 361.76168457 -86.14770508 361.63891602 C-92.33851753 360.86300131 -98.4834376 359.80353432 -104.63671875 358.77734375 C-105.98154882 358.5540265 -107.3263927 358.33079238 -108.67124939 358.1076355 C-112.26524929 357.51062106 -115.85882878 356.9111132 -119.45227814 356.31079483 C-121.69839313 355.93568078 -123.94461423 355.5612076 -126.19085693 355.18685913 C-145.23327517 352.01189637 -164.25950273 348.76366768 -183.25860596 345.33758545 C-200.43811228 342.24038884 -217.6501265 339.35497622 -234.87548828 336.5246582 C-235.85884659 336.36257874 -236.8422049 336.20049927 -237.85536194 336.0335083 C-239.69563393 335.7304119 -241.53614637 335.42877042 -243.37693787 335.12884521 C-244.19428909 334.99423889 -245.01164032 334.85963257 -245.85375977 334.72094727 C-246.56186295 334.60517838 -247.26996613 334.48940948 -247.99952698 334.37013245 C-250.02683579 333.99503478 -252.00219785 333.50754907 -254 333 C-258.11768335 332.11730305 -258.11768335 332.11730305 -262 333 C-264.35429874 335.53367388 -266.1693677 338.22435787 -268.07421875 341.109375 C-275.55396789 352.33658466 -287.86550601 358.96501517 -300.9375 361.58984375 C-304.06800294 362.00910754 -307.09205863 362.20333092 -310.25 362.25 C-311.28640625 362.27578125 -312.3228125 362.3015625 -313.390625 362.328125 C-318.1629517 361.89427712 -322.46733905 360.50483436 -327 359 C-334.24120856 370.65182905 -341.43387269 382.33137689 -348.55517578 394.05688477 C-353.68088166 402.49056543 -358.85346313 410.89491218 -364.03173828 419.29638672 C-369.02115359 427.39649434 -373.97281852 435.51890919 -378.91088867 443.65039062 C-382.84479438 450.12115612 -386.81801167 456.56648212 -390.8125 463 C-394.66474507 469.20565251 -398.49192102 475.42429064 -402.25 481.6875 C-402.6210083 482.30560547 -402.9920166 482.92371094 -403.37426758 483.56054688 C-404.64207401 485.68259233 -405.89409 487.78817999 -407 490 C-406.195625 490.3403125 -406.195625 490.3403125 -405.375 490.6875 C-389.63598093 499.38537896 -380.04145717 519.81093744 -374.96484375 536.33984375 C-368.0781032 562.46484738 -371.96787437 587.45742124 -384.5859375 610.953125 C-390.59545279 620.97875539 -398.64647871 630.91520515 -408 638 C-408.66 638 -409.32 638 -410 638 C-401.01622918 652.19515385 -391.91347734 666.30710322 -382.71923828 680.36669922 C-380.21909379 684.19608838 -377.73259815 688.0342192 -375.25 691.875 C-374.59004028 692.8959375 -374.59004028 692.8959375 -373.91674805 693.9375 C-373.04495523 695.28653748 -372.17329032 696.63565762 -371.30175781 697.98486328 C-369.07739665 701.42820106 -366.8514593 704.87051859 -364.625 708.3125 C-363.95162598 709.35349854 -363.95162598 709.35349854 -363.26464844 710.41552734 C-359.68392704 715.94856434 -356.09310237 721.47499709 -352.5 727 C-347.10221018 735.30001525 -341.71823375 743.60884956 -336.34277344 751.92333984 C-334.9815203 754.02857969 -333.61976305 756.13349252 -332.2578125 758.23828125 C-331.80237061 758.94218994 -331.34692871 759.64609863 -330.87768555 760.37133789 C-329.96541278 761.78089066 -329.05281951 763.19023606 -328.13989258 764.59936523 C-325.75287112 768.284899 -323.37318709 771.97490717 -321.00390625 775.671875 C-320.26527344 776.82139648 -320.26527344 776.82139648 -319.51171875 777.99414062 C-318.57326855 779.45493574 -317.63693123 780.91709127 -316.703125 782.38085938 C-314.31458384 786.09356157 -311.83578881 789.6049489 -309 793 C-308.25878906 792.71125 -307.51757812 792.4225 -306.75390625 792.125 C-291.7930485 786.8511603 -276.69070954 787.43456363 -262.2265625 794.3203125 C-251.93349005 800.11610406 -244.56525875 807.60138999 -239 818 C-238.23623047 819.37865234 -238.23623047 819.37865234 -237.45703125 820.78515625 C-231.81613436 832.77798746 -231.62159314 848.87501003 -236.0625 861.3125 C-243.05000501 876.22964553 -254.01271096 887.60682056 -269.61328125 893.32421875 C-285.60601787 898.05727164 -299.50766467 896.80548575 -314.1875 888.875 C-323.73702006 882.95858665 -331.11343937 875.1243428 -336 865 C-336.4125 864.15566406 -336.825 863.31132813 -337.25 862.44140625 C-342.26973997 850.15350111 -341.79535956 834.0925369 -337.26953125 821.73046875 C-335.28211661 817.4559985 -332.9013872 813.70691372 -330 810 C-329.52949219 809.39027344 -329.05898437 808.78054688 -328.57421875 808.15234375 C-325.4112426 804.2056213 -325.4112426 804.2056213 -323 803 C-324.3262854 799.40316515 -325.92367063 796.35575728 -328.03515625 793.16015625 C-328.98189209 791.71974976 -328.98189209 791.71974976 -329.94775391 790.25024414 C-330.99455322 788.67231079 -330.99455322 788.67231079 -332.0625 787.0625 C-332.81211537 785.92533162 -333.56128758 784.78787101 -334.31005859 783.65014648 C-335.96462735 781.13761286 -337.62182198 778.62683716 -339.28076172 776.1171875 C-342.15346285 771.7699945 -345.01674958 767.41664026 -347.87890625 763.0625 C-352.11782936 756.61459212 -356.35872531 750.16798929 -360.6015625 743.72265625 C-366.10308402 735.36466388 -371.59957506 727.00337654 -377.09371948 718.64053345 C-385.35981258 706.05851404 -393.62859299 693.47826243 -401.90136719 680.90063477 C-402.99440189 679.23875293 -404.08734072 677.57680804 -405.18017578 675.91479492 C-406.21320117 674.34378222 -407.24638882 672.7728762 -408.27975464 671.2020874 C-409.24570495 669.73355497 -410.21115714 668.26469475 -411.17605591 666.79547119 C-414.09972071 662.3484048 -417.06017516 657.9292373 -420.08959961 653.55322266 C-421 652 -421 652 -421 650 C-422.09957031 650.47050781 -423.19914062 650.94101562 -424.33203125 651.42578125 C-451.41748482 662.89209994 -475.87255774 664.21617392 -504 656 C-504.35078613 656.47606689 -504.70157227 656.95213379 -505.06298828 657.44262695 C-521.5546875 679.82421875 -521.5546875 679.82421875 -523.28369141 682.17041016 C-524.42959887 683.72577986 -525.57510557 685.2814449 -526.72021484 686.83740234 C-529.77800117 690.99113237 -532.84407464 695.13841627 -535.921875 699.27734375 C-536.88287109 700.57285156 -536.88287109 700.57285156 -537.86328125 701.89453125 C-539.0925341 703.55135031 -540.32418821 705.20639134 -541.55859375 706.859375 C-542.11160156 707.60574219 -542.66460938 708.35210938 -543.234375 709.12109375 C-543.96479004 710.10227173 -543.96479004 710.10227173 -544.70996094 711.10327148 C-546.00260376 713.00382828 -547.02226994 714.92246792 -548 717 C-547.50371094 717.55945313 -547.00742188 718.11890625 -546.49609375 718.6953125 C-533.32859967 734.23645352 -527.37468686 752.55795407 -528.76806641 772.78613281 C-530.94940095 793.60754508 -541.06780021 811.55338636 -557 825 C-575.39099837 838.04341265 -597.55479019 841.99338619 -619.6640625 838.34765625 C-638.47403771 834.469723 -654.33913479 822.4753979 -665.1640625 806.8828125 C-676.14779892 789.0702362 -678.8725712 768.59731836 -675 748.0625 C-671.82880295 736.76885014 -665.89242533 725.66652248 -658 717 C-657.32324219 716.24332031 -656.64648438 715.48664062 -655.94921875 714.70703125 C-644.27128219 702.32385518 -627.32892266 693.39297778 -610.1640625 692.62890625 C-607.98462755 692.5890203 -605.80479392 692.56760266 -603.625 692.5625 C-602.48627441 692.55863281 -601.34754883 692.55476562 -600.17431641 692.55078125 C-590.16475563 692.68595045 -581.37223108 694.60952881 -572 698 C-565.01503295 688.87549349 -558.31116886 679.62186273 -551.87841797 670.09960938 C-547.74539321 664.01249747 -543.42393991 658.09587519 -538.95703125 652.25 C-537.62719318 650.50783784 -536.3113254 648.75612041 -535 647 C-534.58379395 646.45939941 -534.16758789 645.91879883 -533.73876953 645.36181641 C-531.54834363 642.37961711 -531.54834363 642.37961711 -531.03515625 638.80859375 C-532.21150385 636.60353733 -533.44610183 635.57307769 -535.4375 634.0625 C-549.8646487 621.90653034 -558.54010853 604.02341205 -563 586 C-563.18546387 585.25322998 -563.37092773 584.50645996 -563.56201172 583.73706055 C-568.84006407 560.28245056 -564.14567713 538.17482615 -554 517 C-555.26263672 516.23042969 -555.26263672 516.23042969 -556.55078125 515.4453125 C-563.40389235 511.229542 -570.17652907 506.90942063 -576.86328125 502.43359375 C-577.45979996 502.03434692 -578.05631866 501.6351001 -578.6709137 501.22375488 C-581.67846865 499.20826825 -584.68168913 497.1865592 -587.6809082 495.15869141 C-588.81068488 494.39872621 -589.94048532 493.63879635 -591.0703125 492.87890625 C-592.06820801 492.2041626 -593.06610352 491.52941895 -594.09423828 490.83422852 C-596.98442444 489.00983189 -599.91847481 487.47381024 -603 486 C-603.58265625 486.58007812 -604.1653125 487.16015625 -604.765625 487.7578125 C-614.38742041 496.92574964 -625.57715079 503.02667367 -639 504 C-639.89847656 504.06574219 -640.79695313 504.13148438 -641.72265625 504.19921875 C-655.46880238 504.72443382 -667.9502942 499.64320495 -678.50390625 490.93359375 C-689.55907883 480.4770092 -695.94601633 468.18925322 -696.52124023 452.96875 C-696.72254416 438.78933055 -693.65658273 428.43322248 -685 417 C-683.9171875 415.4840625 -683.9171875 415.4840625 -682.8125 413.9375 C-675.61221532 405.68239655 -663.03962619 397.77003043 -651.92211914 396.82299805 C-633.80209142 396.3578117 -618.64498289 398.76128537 -604.75 411.625 C-593.71822589 423.57608862 -588.13454907 437.84863783 -588.52734375 454.08984375 C-589.36587622 461.02679417 -591.59579404 467.46571167 -594 474 C-593.26297852 474.27529541 -592.52595703 474.55059082 -591.76660156 474.83422852 C-589.19389106 475.91829952 -587.05852906 477.11896634 -584.734375 478.65234375 C-583.93475342 479.17642822 -583.13513184 479.7005127 -582.3112793 480.24047852 C-581.46605713 480.80049561 -580.62083496 481.3605127 -579.75 481.9375 C-577.95973004 483.1121234 -576.16936374 484.28659997 -574.37890625 485.4609375 C-573.48059082 486.05229492 -572.58227539 486.64365234 -571.65673828 487.25292969 C-567.67627883 489.87047865 -563.68379162 492.46920946 -559.6875 495.0625 C-558.67671387 495.72270142 -558.67671387 495.72270142 -557.64550781 496.39624023 C-553.50735193 499.08354994 -549.30505886 501.58849872 -545 504 C-544.48953125 503.39414062 -543.9790625 502.78828125 -543.453125 502.1640625 C-526.90445225 483.09201057 -504.55665059 469.94101144 -479 468 C-461.57026587 467.10911499 -446.61900319 469.5503393 -430 475 C-429.63874023 474.40276123 -429.27748047 473.80552246 -428.90527344 473.19018555 C-422.25601172 462.20714254 -415.57090223 451.25364241 -408.68261719 440.41870117 C-404.39001786 433.65214973 -400.19038604 426.83022072 -396 420 C-391.37957042 412.46994855 -386.73714655 404.95722229 -382 397.5 C-376.51890114 388.87052623 -371.15301587 380.17143133 -365.81860352 371.45068359 C-362.8342344 366.5766611 -359.83945447 361.71646924 -356.72265625 356.92578125 C-356.24521973 356.18674561 -355.7677832 355.44770996 -355.27587891 354.6862793 C-354.41249576 353.35655586 -353.53914548 352.0332261 -352.65380859 350.71801758 C-350.5614376 347.54979118 -350.5614376 347.54979118 -350.07421875 343.87890625 C-351.20558804 341.5827517 -352.483511 339.46203898 -353.875 337.3125 C-360.63868781 326.29920498 -363.13318316 312.7678694 -360.6015625 299.98876953 C-358.69460381 292.5351281 -355.87375622 285.86944435 -351.0390625 279.83203125 C-349.80166545 278.07390292 -349.80166545 278.07390292 -350.22998047 276.12036133 C-351.16249284 273.55255223 -352.38303103 272.20230492 -354.28125 270.2421875 C-354.95381836 269.53932617 -355.62638672 268.83646484 -356.31933594 268.11230469 C-357.03895508 267.37399414 -357.75857422 266.63568359 -358.5 265.875 C-359.97473518 264.33668186 -361.44869927 262.79762412 -362.921875 261.2578125 C-363.63150391 260.51950195 -364.34113281 259.78119141 -365.07226562 259.02050781 C-367.34543284 256.63794298 -369.55927921 254.20847556 -371.75 251.75 C-375.08777361 248.00610944 -378.46906269 244.30673043 -381.875 240.625 C-387.14657432 234.92602329 -392.39864413 229.20963715 -397.64111328 223.48388672 C-399.92642496 220.98835593 -402.2132958 218.49425473 -404.5 216 C-405.41667404 215.00000675 -406.3333407 214.00000676 -407.25 213 C-407.70375 212.505 -408.1575 212.01 -408.625 211.5 C-410 210 -411.375 208.5 -412.75 207 C-413.20431396 206.50443604 -413.65862793 206.00887207 -414.12670898 205.49829102 C-415.03788568 204.50417699 -415.94885775 203.50987538 -416.85961914 202.51538086 C-419.23358775 199.92370279 -421.61165363 197.33595617 -423.99609375 194.75390625 C-424.48851562 194.21958984 -424.9809375 193.68527344 -425.48828125 193.13476562 C-426.85439783 191.65265801 -428.2220707 190.17198532 -429.58984375 188.69140625 C-431.82579017 186.19453901 -433.93545105 183.63936536 -436 181 C-438.78848473 182.08587496 -441.50417444 183.23646578 -444.21484375 184.5078125 C-457.37516816 190.39640905 -472.56912152 191.81553536 -486.3125 186.875 C-501.03376999 180.07169768 -512.77009803 169.43309364 -518.5 154 C-523.0710319 140.11760683 -522.60044898 125.09294668 -516 112 C-507.87315909 97.7780284 -497.22965622 90.17751869 -482.32421875 83.8671875 C-468.57190998 80.27962869 -453.27853961 81.9859036 -441 89 C-437.7187543 91.0916113 -434.86165957 93.37021403 -432 96 C-431.32710937 96.54785156 -430.65421875 97.09570312 -429.9609375 97.66015625 C-420.56520943 105.91316063 -414.9203588 119.2323714 -413.62890625 131.53515625 C-413.365084 145.54877343 -416.99884452 156.97553004 -426 168 C-424.51993197 171.36448454 -422.60866795 173.74003645 -420.125 176.4375 C-419.32320312 177.31277344 -418.52140625 178.18804687 -417.6953125 179.08984375 C-416.36113281 180.53037109 -416.36113281 180.53037109 -415 182 C-414.01803861 183.06362619 -413.03627354 184.12743366 -412.0546875 185.19140625 C-410.51868508 186.85561472 -408.98213662 188.51930108 -407.44384766 190.18139648 C-404.43715897 193.43203848 -401.4551332 196.70224266 -398.5 200 C-394.06383237 204.94864909 -389.55566166 209.82834772 -385.04296875 214.70703125 C-380.80209267 219.2926721 -376.58545151 223.90044917 -372.36767578 228.50732422 C-370.97420848 230.02814876 -369.57912249 231.54747324 -368.18359375 233.06640625 C-363.9348641 237.69234235 -359.69606255 242.32609403 -355.5 247 C-354.42492188 248.18529297 -354.42492188 248.18529297 -353.328125 249.39453125 C-351.57980436 251.35112498 -349.86942491 253.3245141 -348.171875 255.32421875 C-347.19807332 256.44544857 -346.22411713 257.56654422 -345.25 258.6875 C-344.80205078 259.22955078 -344.35410156 259.77160156 -343.89257812 260.33007812 C-342.46021601 262.03245269 -342.46021601 262.03245269 -340 264 C-336.10061198 263.97528122 -332.72596926 262.12536257 -329.1875 260.5625 C-314.48170519 254.37246958 -301.02322221 254.92946627 -286 260 C-282.3623351 261.6674633 -279.20923677 263.61914023 -276 266 C-275.30648438 266.47824219 -274.61296875 266.95648438 -273.8984375 267.44921875 C-263.5581341 275.37412309 -257.98673915 289.02414746 -256.3125 301.625 C-256.209375 302.73875 -256.10625 303.8525 -256 305 C-255.32517578 305.03738281 -254.65035156 305.07476562 -253.95507812 305.11328125 C-245.78433691 305.6700051 -237.85761578 307.00629375 -229.83145142 308.55172729 C-225.66517655 309.35278508 -221.49472728 310.13148861 -217.32421875 310.91015625 C-216.42607956 311.07806168 -215.52794037 311.2459671 -214.60258484 311.41896057 C-203.19258059 313.53965984 -191.75117606 315.47878516 -180.3125 317.4375 C-162.22374359 320.54021937 -144.16749953 323.78167999 -126.13085938 327.17358398 C-109.77669681 330.24716451 -93.39413212 333.14821756 -77 336 C-76.92523186 334.22545944 -76.92523186 334.22545944 -76.84895325 332.41506958 C-76.17293536 317.02703589 -75.14381024 301.66967691 -74.07421875 286.3046875 C-73.9316963 284.24448797 -73.78947799 282.1842676 -73.64729625 280.12404454 C-73.19987927 273.64098837 -72.75025308 267.15808821 -72.29907227 260.67529297 C-71.89453207 254.86229212 -71.4921478 249.04914752 -71.09204102 243.23583984 C-69.08427175 214.06888679 -67.04399392 184.90545086 -64.76953125 155.7578125 C-64.6860462 154.68068874 -64.60256115 153.60356499 -64.51654625 152.49380112 C-64.2830635 149.49189984 -64.04620169 146.4902886 -63.80786133 143.48876953 C-63.7067036 142.18843718 -63.7067036 142.18843718 -63.60350227 140.86183548 C-63.22841105 136.20731099 -62.71364282 131.61509531 -62 127 C-62.82886719 127.07347656 -63.65773438 127.14695313 -64.51171875 127.22265625 C-68.93846472 126.940098 -71.92816007 125.47021833 -75.8125 123.4375 C-76.51955078 123.07398438 -77.22660156 122.71046875 -77.95507812 122.3359375 C-83.46747062 119.43041565 -88.3696739 116.19156536 -93 112 C-93.66 111.43152344 -94.32 110.86304688 -95 110.27734375 C-109.17041629 97.24166783 -116.09405331 78.97039772 -117.23828125 60.0625 C-117.78435523 40.12592415 -111.6986314 22.71120331 -98.52734375 7.55859375 C-71.9812146 -19.31577192 -30.3602978 -23.15170023 0 0 Z " fill="#808B65" transform="translate(1682,101)"/>
<path d="M0 0 C42.57 0 85.14 0 129 0 C129.04898437 16.64566406 129.09796875 33.29132813 129.1484375 50.44140625 C129.18382605 60.99154163 129.21970731 71.54167153 129.2578125 82.09179688 C129.27781807 87.6359858 129.29770212 93.18017514 129.31738281 98.72436523 C129.31985425 99.41916085 129.32232569 100.11395647 129.32487202 100.82980651 C129.36450292 112.02098074 129.39728407 123.21216496 129.42749982 134.40336812 C129.45870374 145.90360762 129.49749544 157.40380095 129.54279006 168.90399402 C129.56796904 175.35712695 129.58977551 181.81023047 129.60334396 188.26339912 C129.61624262 194.34626805 129.63838016 200.42903566 129.66738319 206.51184845 C129.67639827 208.7357034 129.68213488 210.95957463 129.68421364 213.18344688 C129.70043947 227.91480965 129.81175568 242.50496361 134.3125 256.6875 C134.5305127 257.39535645 134.74852539 258.10321289 134.97314453 258.83251953 C141.25101969 278.75834183 151.15535025 294.84887652 170 305 C193.02196358 316.64104938 222.26937602 317.86521143 246.74365234 310.09863281 C269.15730783 302.48877315 286.44605918 289.43631678 297.3125 268 C306.58091794 248.95435376 308.44905433 230.76968362 308.43237305 209.90844727 C308.44140512 207.61069212 308.45173585 205.31294177 308.46325684 203.01519775 C308.49068305 196.81998964 308.50009174 190.62487332 308.50611091 184.4296124 C308.51553218 177.93936144 308.54173848 171.44917803 308.56611633 164.95896912 C308.60474189 154.07934578 308.63313746 143.19974051 308.65356445 132.32006836 C308.6746186 121.12147391 308.7019658 109.92292333 308.73754883 98.72436523 C308.74086909 97.67577787 308.74086909 97.67577787 308.74425644 96.60600692 C308.76356944 90.52376819 308.78335431 84.441531 308.80318546 78.35929394 C308.88773897 52.23955273 308.94134009 26.11984192 309 0 C351.57 0 394.14 0 438 0 C438.11043971 54.36216479 438.20267843 108.7242229 438.25532665 163.08646795 C438.26157941 169.5193968 438.2680511 175.95232541 438.2746582 182.38525391 C438.27596976 183.66581494 438.27728131 184.94637597 438.2786326 186.26574188 C438.3003283 206.94027897 438.33971732 227.61474581 438.38576398 248.28924137 C438.43269165 269.53814469 438.46032969 290.78701148 438.47044247 312.03596449 C438.47726797 325.1243323 438.49874391 338.21250148 438.53958233 351.30080807 C438.56622258 360.30293892 438.57395341 369.30496863 438.56750689 378.30713594 C438.56433674 383.48376717 438.56883597 388.66005391 438.59602737 393.83662224 C438.74388779 423.46341029 437.58226318 452.64252915 428 481 C427.72317383 481.84111328 427.44634766 482.68222656 427.16113281 483.54882812 C417.86696185 511.50167528 404.03008327 535.96546695 384.078125 557.67578125 C382.65498401 559.26745209 381.28531097 560.90810775 379.96484375 562.5859375 C378.19284603 564.76306393 376.44967458 566.50687871 374.3125 568.3125 C372.19759054 570.11094491 370.1021189 571.90410786 368.078125 573.8046875 C335.52758025 604.21042891 290.37434136 620.05871702 247 626 C246.3198584 626.10296387 245.6397168 626.20592773 244.93896484 626.31201172 C216.2139786 630.57329981 185.79849348 628.51865091 157 626 C155.53965332 625.87987549 155.53965332 625.87987549 154.04980469 625.75732422 C142.87154783 624.83137294 131.97258088 623.34252091 121 621 C120.30229492 620.85304688 119.60458984 620.70609375 118.88574219 620.5546875 C110.01176432 618.6738983 101.18433755 616.59979194 92.375 614.4375 C91.55805664 614.23979004 90.74111328 614.04208008 89.89941406 613.83837891 C88.72330566 613.54519775 88.72330566 613.54519775 87.5234375 613.24609375 C86.5012915 612.99363892 86.5012915 612.99363892 85.45849609 612.73608398 C81.91211074 611.67428142 78.46622356 610.29983384 75 609 C75 565.44 75 521.88 75 477 C78.91657838 478.30552613 82.60501745 479.61557805 86.38671875 481.20703125 C98.38830539 486.18514136 110.16371351 490.62296265 122.84375 493.49853516 C124.87827598 493.97169145 126.89007395 494.49760129 128.90625 495.04296875 C151.5926841 500.94608577 175.77541633 502.37851527 199.125 502.375 C200.27977844 502.37771912 200.27977844 502.37771912 201.45788574 502.38049316 C231.53577748 502.37242549 261.74959039 497.5609735 284.375 476.0625 C294.93995652 464.76816364 302.83826257 450.15320501 306 435 C306.17917969 434.17048828 306.35835937 433.34097656 306.54296875 432.48632812 C308.29136272 423.38284825 308.22797206 414.47474247 308.125 405.25 C308.11494198 403.66667238 308.10582116 402.08333852 308.09765625 400.5 C308.07588495 396.66650912 308.04151386 392.83332582 308 389 C307.21786133 389.80026611 306.43572266 390.60053223 305.62988281 391.42504883 C294.79238365 402.43988377 294.79238365 402.43988377 288.75 406.6875 C287.81559082 407.35410645 287.81559082 407.35410645 286.86230469 408.03417969 C269.5955685 420.11141254 250.65145018 427.8391894 230 432 C229.17008545 432.17732666 228.3401709 432.35465332 227.48510742 432.53735352 C218.38722836 434.29196121 209.41585669 434.35622853 200.1875 434.3125 C199.37152344 434.31034485 198.55554687 434.3081897 197.71484375 434.30596924 C148.75877869 434.09887321 103.6831493 416.90706495 68 383 C67.25000732 382.29085449 67.25000732 382.29085449 66.48486328 381.56738281 C58.15277478 373.63809214 50.81006576 365.26528761 44 356 C43.21882813 354.94039062 42.43765625 353.88078125 41.6328125 352.7890625 C22.56741086 326.0711121 10.80687208 295.94070514 4 264 C3.84702513 263.29491385 3.69405025 262.5898277 3.53643978 261.86337531 C2.28111289 255.87825655 1.42977341 249.95181083 0.88919067 243.8621521 C0.80488206 242.91416634 0.72057345 241.96618058 0.63371003 240.98946798 C-0.26026085 230.06327875 -0.26569184 219.16102081 -0.22705078 208.20556641 C-0.22648488 205.9166362 -0.2268067 203.62770563 -0.22793579 201.33877563 C-0.22850333 195.19974554 -0.21684734 189.0607956 -0.20278788 182.92178392 C-0.19017938 176.47832694 -0.18910212 170.03486757 -0.18673706 163.59140015 C-0.18125195 152.80066396 -0.168809 142.0099602 -0.15087891 131.21923828 C-0.13245071 120.11702616 -0.11835142 109.014822 -0.10986328 97.91259766 C-0.10932729 97.2184329 -0.10879129 96.52426814 -0.10823905 95.80906808 C-0.10361181 89.76848261 -0.09930695 83.72789691 -0.09503365 77.68731117 C-0.07629826 51.79151353 -0.03643304 25.89579281 0 0 Z " fill="#0F458C" transform="translate(1141,1569)"/>
<path d="M0 0 C0.81082031 0.70253906 1.62164063 1.40507813 2.45703125 2.12890625 C51.24945149 45.22512996 70.67973031 104.92387599 74.80236816 168.3487854 C75.33283087 178.14899376 75.37477277 187.96576327 75.46331787 197.7779541 C75.67418795 219.89299757 75.948904 241.9659489 78 264 C78.09506836 265.03092773 78.19013672 266.06185547 78.28808594 267.12402344 C79.96203679 284.29711268 83.28390331 301.16356698 87 318 C87.21994629 318.99821777 87.43989258 319.99643555 87.66650391 321.02490234 C91.56247987 338.21938285 97.62363156 354.6869221 103.65307617 371.22216797 C105.16396226 375.45987892 106.57729234 379.73187701 108 384 C65.43 384 22.86 384 -21 384 C-23.97 376.08 -26.94 368.16 -30 360 C-31.98 355.05 -31.98 355.05 -34 350 C-34.76345121 347.50168904 -35.48120858 344.98870043 -36.140625 342.4609375 C-36.39848785 341.48333969 -36.39848785 341.48333969 -36.66156006 340.48599243 C-37.19702891 338.45050662 -37.72369131 336.41287111 -38.25 334.375 C-38.61660016 332.97510647 -38.98378374 331.5753656 -39.3515625 330.17578125 C-40.24109527 326.78558419 -41.12275946 323.39340137 -42 320 C-42.32685791 320.44279297 -42.65371582 320.88558594 -42.99047852 321.34179688 C-54.35763349 336.7085434 -54.35763349 336.7085434 -59.5078125 342.3515625 C-60.49466346 343.44174864 -61.44921107 344.56215557 -62.3671875 345.7109375 C-78.12524984 365.38625828 -104.21776657 377.45262462 -128 384 C-128.75651855 384.21172852 -129.51303711 384.42345703 -130.29248047 384.64160156 C-168.25272357 394.68685776 -215.5674659 389.04542821 -251 373 C-251.73138184 372.67660645 -252.46276367 372.35321289 -253.21630859 372.02001953 C-275.70184578 362.03213855 -295.7944157 348.62491776 -313.47070312 331.47802734 C-314.97122304 330.02781222 -316.49159414 328.60121583 -318.015625 327.17578125 C-326.37560075 319.22909848 -333.20176885 310.2905134 -340 301 C-340.67933594 300.09378906 -341.35867188 299.18757813 -342.05859375 298.25390625 C-347.40974877 290.92541912 -351.76063133 283.00649932 -356 275 C-356.55324951 273.96286865 -356.55324951 273.96286865 -357.11767578 272.90478516 C-368.87459194 250.51832835 -376.04268389 225.89147278 -380 201 C-380.12842285 200.25588867 -380.2568457 199.51177734 -380.38916016 198.74511719 C-384.46232041 174.64795934 -383.21445456 147.95292197 -379 124 C-378.87141602 123.23623047 -378.74283203 122.47246094 -378.61035156 121.68554688 C-373.04674857 89.776231 -359.36380324 58.23191782 -339 33 C-338.19304687 31.989375 -337.38609375 30.97875 -336.5546875 29.9375 C-320.32724406 9.9851697 -301.25726789 -6.1612677 -279 -19 C-278.28682617 -19.4134668 -277.57365234 -19.82693359 -276.83886719 -20.25292969 C-251.07120428 -34.98863494 -221.46289933 -44.4337038 -192 -48 C-191.19755859 -48.10151367 -190.39511719 -48.20302734 -189.56835938 -48.30761719 C-123.74507183 -56.29001281 -51.25629643 -44.81373052 0 0 Z " fill="#0F458C" transform="translate(783,1615)"/>
<path d="M0 0 C45.11766618 40.51838827 65.66907052 98.45466784 69.171875 157.8671875 C69.90515355 171.85748751 70.03224932 185.88058524 70.23291016 199.88647461 C70.5331517 220.58219208 71.05975375 241.18632072 73.38671875 261.765625 C73.51735718 262.95138626 73.51735718 262.95138626 73.65063477 264.16110229 C74.90712195 275.50152563 76.51771297 286.6483184 79.07861328 297.77636719 C79.61389439 300.19488853 80.08263303 302.62008807 80.5390625 305.0546875 C82.45285533 315.24131552 84.83432727 325.1171895 87.94628906 335.00390625 C88.55718335 336.96104815 89.14322959 338.92396516 89.72265625 340.890625 C92.84320149 351.35316372 96.70625221 361.50019778 100.69213867 371.66064453 C101.72549476 374.41950221 102.64260078 377.22077108 103.57421875 380.015625 C61.00421875 380.015625 18.43421875 380.015625 -25.42578125 380.015625 C-34.68350436 356.87131722 -34.68350436 356.87131722 -38.56420898 345.01196289 C-39.24989045 342.91766669 -39.94556687 340.82687803 -40.64257812 338.73632812 C-43.13389085 331.22212763 -45.45662308 323.68631273 -47.42578125 316.015625 C-47.87566406 316.73105469 -48.32554687 317.44648437 -48.7890625 318.18359375 C-59.2614751 334.40638922 -72.21240751 349.34837255 -88.42578125 360.015625 C-90.07126953 361.11003906 -90.07126953 361.11003906 -91.75 362.2265625 C-113.03055196 375.92597279 -139.37665635 384.08669046 -164.69140625 384.21875 C-165.56488708 384.22445007 -166.43836792 384.23015015 -167.33831787 384.23602295 C-169.18386648 384.24542456 -171.02943151 384.25198755 -172.875 384.25585938 C-175.62662307 384.2654536 -178.37746145 384.29647646 -181.12890625 384.328125 C-197.38568543 384.42619039 -213.20544099 382.58224885 -228.92578125 378.328125 C-230.35857422 377.94358154 -230.35857422 377.94358154 -231.8203125 377.55126953 C-256.65877434 370.63844596 -280.01737936 358.72270423 -300.42578125 343.015625 C-301.40289063 342.26925781 -302.38 341.52289062 -303.38671875 340.75390625 C-315.26229443 331.33354489 -326.14454346 321.00463274 -335.42578125 309.015625 C-336.90328304 307.26421914 -338.38248792 305.51424878 -339.86328125 303.765625 C-378.02881735 256.75202344 -391.54648495 193.19420867 -385.7421875 133.8203125 C-379.3090853 79.73905979 -353.51726677 28.95235649 -310.42578125 -4.984375 C-309.54535156 -5.69335938 -308.66492187 -6.40234375 -307.7578125 -7.1328125 C-280.81018468 -28.18920998 -248.86155637 -41.29188447 -215.64038086 -48.48583984 C-213.58664044 -48.94816351 -211.56080169 -49.47216301 -209.52734375 -50.015625 C-139.21753435 -67.65607897 -54.1147397 -47.66695992 0 0 Z " fill="#0F458C" transform="translate(2796.42578125,1618.984375)"/>
<path d="M0 0 C1.155 0.60199219 2.31 1.20398437 3.5 1.82421875 C18.63360626 10.02732123 31.66684176 21.09037055 44 33 C44.7734375 33.71027344 45.546875 34.42054687 46.34375 35.15234375 C73.37764398 60.66802992 89.93907787 97.999588 98.4074707 133.55249023 C98.76975198 135.04893431 99.14739807 136.54189506 99.55151367 138.02758789 C101.15068705 143.9230706 101.85860406 149.87803598 102.5625 155.9375 C102.68818359 156.95134766 102.81386719 157.96519531 102.94335938 159.00976562 C104.88969162 175.40583149 105.14382474 191.73090799 105.11352539 208.21704102 C105.11324266 210.39686075 105.11340292 212.57668057 105.1139679 214.75650024 C105.11425253 220.6210175 105.10841022 226.48551392 105.10139394 232.35002637 C105.09510437 238.49856283 105.09455219 244.64709986 105.09336853 250.79563904 C105.09027164 262.41505632 105.08208056 274.03446409 105.07201904 285.6538772 C105.05870646 301.37195576 105.05334472 317.09003703 105.04751682 332.80811977 C105.03813943 357.53875363 105.01820958 382.26936742 105 407 C62.43 407 19.86 407 -24 407 C-24.04898437 391.38558594 -24.09796875 375.77117187 -24.1484375 359.68359375 C-24.18384348 349.76236441 -24.21973617 339.84114073 -24.2578125 329.91992188 C-24.31809317 314.18971069 -24.37644735 298.45951008 -24.421875 282.72924805 C-24.45497781 271.26989431 -24.49490773 259.81058737 -24.54279006 248.35128552 C-24.56787464 242.29249084 -24.58970752 236.23372649 -24.60334396 230.17489433 C-24.61633017 224.45313978 -24.63855628 218.7314902 -24.66738319 213.00979424 C-24.67633145 210.92798001 -24.68211866 208.84614896 -24.68421364 206.76431656 C-24.69689723 196.05915665 -24.98083751 185.43093612 -25.85586548 174.75819397 C-25.92787497 173.84067492 -25.99988446 172.92315587 -26.07407606 171.97783321 C-28.12360597 149.39836464 -37.17315758 128.01697061 -53.6875 112.3125 C-69.93548773 98.92235991 -89.97920217 93.61350093 -110.7121582 93.73925781 C-112.7986391 93.74992911 -114.88424909 93.7393342 -116.97070312 93.7265625 C-139.12735996 93.70264442 -160.62621446 99.11722587 -176.92700195 114.80883789 C-178.30403327 116.18680804 -179.65271892 117.59292833 -181 119 C-181.72703125 119.74507812 -182.4540625 120.49015625 -183.203125 121.2578125 C-202.69254534 143.27932288 -204.2921855 173.90017383 -204.31884766 201.74609375 C-204.32816466 203.99473422 -204.33833591 206.24337129 -204.34928894 208.49200439 C-204.37640334 214.54870781 -204.39168284 220.6053882 -204.40471697 226.66213608 C-204.42042939 233.00956589 -204.44719343 239.35694926 -204.4727478 245.7043457 C-204.51410511 256.34259794 -204.54873956 266.98085035 -204.578125 277.61914062 C-204.60838802 288.56837806 -204.64279556 299.51758986 -204.68261719 310.46679688 C-204.6850987 311.15049961 -204.6875802 311.83420234 -204.69013691 312.53862333 C-204.71176377 318.48743233 -204.73370099 324.43624017 -204.75566864 330.38504791 C-204.84957492 355.92333623 -204.92312598 381.46164158 -205 407 C-247.57 407 -290.14 407 -334 407 C-334.1209091 349.65773854 -334.1209091 349.65773854 -334.14648438 325.49414062 C-334.15235629 319.97436496 -334.15841725 314.45458956 -334.16479492 308.93481445 C-334.16558617 308.24318382 -334.16637741 307.55155318 -334.16719264 306.83896405 C-334.18017229 295.73343933 -334.2037852 284.62796214 -334.23145839 273.52246543 C-334.25970464 262.08999884 -334.27599247 250.65757044 -334.28226548 239.22506791 C-334.28614761 232.81845192 -334.29515301 226.41194296 -334.31719017 220.00536156 C-334.50530597 163.01873826 -330.35554374 106.56280995 -295 59 C-294.59571777 58.4445752 -294.19143555 57.88915039 -293.77490234 57.31689453 C-287.72443147 49.02657435 -281.07157918 41.42883578 -274 34 C-273.30777344 33.24332031 -272.61554688 32.48664063 -271.90234375 31.70703125 C-250.28647634 8.84169174 -218.9847123 -8.29860076 -189 -17 C-188.02321289 -17.28713867 -187.04642578 -17.57427734 -186.04003906 -17.87011719 C-125.17762157 -35.3664625 -56.02802146 -30.10303836 0 0 Z " fill="#0F458C" transform="translate(1999,1592)"/>
<path d="M0 0 C42.57 0 85.14 0 129 0 C129 38.94 129 77.88 129 118 C168.6 118 208.2 118 249 118 C249 157.27 249 196.54 249 237 C209.4 237 169.8 237 129 237 C129.0825 252.79875 129.165 268.5975 129.25 284.875 C129.26579102 289.82741699 129.28158203 294.77983398 129.29785156 299.88232422 C129.33115094 304.39798558 129.33115094 304.39798558 129.36956787 308.91360474 C129.38399525 310.89444139 129.39094622 312.87534259 129.39154053 314.85623169 C129.41325468 341.59508649 134.91875524 366.36529701 153 387 C153.59296875 387.68835937 154.1859375 388.37671875 154.796875 389.0859375 C171.65249637 407.3101777 199.22568757 415.63322904 223.34716797 417.22021484 C238.08625734 417.79098623 252.44816098 416.97386006 266.94897461 414.27539062 C269 414 269 414 274 414 C274 453.27 274 492.54 274 533 C267.565 534.485 267.565 534.485 261 536 C259.68 536.33 258.36 536.66 257 537 C255.51840061 537.09297662 254.03332359 537.13787399 252.54882812 537.14526367 C251.23464905 537.15483345 251.23464905 537.15483345 249.8939209 537.16459656 C248.9492395 537.16570938 248.00455811 537.1668222 247.03125 537.16796875 C246.04112915 537.17129715 245.0510083 537.17462555 244.03088379 537.17805481 C241.9260301 537.1831207 239.82116837 537.18546324 237.71630859 537.18530273 C234.56723785 537.18745407 231.41853833 537.20551396 228.26953125 537.22460938 C209.87577063 537.27870787 192.14582 535.9278238 174.1875 531.875 C173.51021851 531.72415955 172.83293701 531.57331909 172.13513184 531.41790771 C134.25251169 522.92651852 99.67442507 505.88012314 70.47558594 480.29199219 C69.10839794 479.09491097 67.73041994 477.91018348 66.3515625 476.7265625 C37.80170354 451.7792094 19.84398009 418.59118979 8 383 C7.75137207 382.25508301 7.50274414 381.51016602 7.24658203 380.74267578 C-0.57595613 356.3474876 -0.6021244 329.3625368 -0.46426249 303.99552119 C-0.44659469 299.89446359 -0.45286119 295.7934221 -0.45587158 291.69233704 C-0.45794474 284.62700797 -0.44565304 277.56182939 -0.42292023 270.49653816 C-0.39007641 260.28199192 -0.37996059 250.06751664 -0.37496826 239.85292333 C-0.36626564 223.27080438 -0.33978856 206.68876521 -0.30175781 190.10668945 C-0.26490612 174.02173251 -0.23665923 157.93679742 -0.21972656 141.85180664 C-0.21867567 140.85632055 -0.21762477 139.86083447 -0.21654204 138.83518214 C-0.21132098 133.839924 -0.20626636 128.84466571 -0.20129442 123.84940732 C-0.15998953 82.56620062 -0.08633792 41.28314189 0 0 Z " fill="#0F458C" transform="translate(86,1466)"/>
<path d="M0 0 C42.57 0 85.14 0 129 0 C129 198.66 129 397.32 129 602 C86.43 602 43.86 602 0 602 C0 403.34 0 204.68 0 0 Z " fill="#0F458C" transform="translate(939,1397)"/>
<path d="M0 0 C42.57 0 85.14 0 129 0 C129 141.9 129 283.8 129 430 C86.43 430 43.86 430 0 430 C0 288.1 0 146.2 0 0 Z " fill="#0F458C" transform="translate(2947,1569)"/>
<path d="M0 0 C6.51795722 0.74847819 12.95126264 1.81473156 19.41015625 2.9609375 C20.49525986 3.15217194 21.58036346 3.34340637 22.698349 3.54043579 C24.98876832 3.94460507 27.27901291 4.34976559 29.5690918 4.75585938 C33.02669834 5.36865483 36.48497757 5.97753446 39.94335938 6.5859375 C50.35775514 8.42418915 60.76001478 10.27911625 71.11181641 12.4453125 C75.05940759 13.20346357 79.0030014 13.59352557 83 14 C83.99 14.495 83.99 14.495 85 15 C86.49579604 15.20092783 87.99696724 15.36336066 89.5 15.5 C93.77777778 15.88888889 93.77777778 15.88888889 96 17 C98.36950521 17.38923527 100.7457572 17.7380578 103.125 18.0625 C105.04699219 18.32740234 105.04699219 18.32740234 107.0078125 18.59765625 C108.48894531 18.79681641 108.48894531 18.79681641 110 19 C110.08636719 20.06476563 110.17273437 21.12953125 110.26171875 22.2265625 C112.08044129 41.99199924 119.29338183 58.26033073 134 72 C151.02456249 85.72233783 170.2487025 91.13724854 192 89 C205.58188179 87.13497948 218.22968947 81.46238685 229 73 C233.00517396 74.60373148 235.6771098 77.42113986 238.640625 80.4453125 C239.16767029 80.97518768 239.69471558 81.50506287 240.23773193 82.05099487 C241.91325675 83.73767825 243.58167722 85.43119564 245.25 87.125 C246.38755851 88.27259388 247.52557436 89.41973461 248.6640625 90.56640625 C251.44803465 93.37238137 254.2256576 96.18450464 257 99 C255.71804849 102.31139661 254.41146283 105.01120962 252.3125 107.875 C236.6356289 131.04618021 231.98522075 160.06321713 237.0625 187.3125 C237.32740234 188.51326172 237.32740234 188.51326172 237.59765625 189.73828125 C238.0356003 192.2001221 238.02660859 194.50421751 238 197 C222.82497697 203.94347083 207.66674093 210.86501814 192.17651367 217.08325195 C186.42758655 219.39516026 180.80129054 221.88814748 175.19921875 224.5390625 C170.62204721 226.62924828 165.96183505 228.50089549 161.30004883 230.39282227 C156.93542561 232.17417068 152.64200958 234.05480385 148.375 236.0625 C142.7041862 238.72820673 136.93748343 241.0607862 131.09375 243.3125 C127.69085558 244.67084255 124.38221831 246.20011294 121.0625 247.75 C112.59194715 251.6909235 103.97945338 255.2813275 95.36572266 258.89550781 C87.13229687 262.35366002 78.95653926 265.88737177 70.86279297 269.66503906 C67.03377597 271.45056396 63.1800762 273.17496651 59.3125 274.875 C58.62478516 275.18179687 57.93707031 275.48859375 57.22851562 275.8046875 C52.23515974 278 52.23515974 278 50 278 C48.67225146 276.1435827 47.41490934 274.23673172 46.1875 272.3125 C31.29577699 250.06081747 9.24963687 238.11198919 -16 231 C-16.26197312 219.52534757 -15.44475609 208.16632782 -14.63891602 196.7277832 C-14.49238549 194.60108454 -14.34623714 192.47435951 -14.20043945 190.34761047 C-13.80580383 184.6084645 -13.40554491 178.86972383 -13.00399518 173.13105798 C-12.58400127 167.11841909 -12.16844373 161.10547327 -11.75218201 155.09257507 C-11.05341617 145.00948919 -10.35090605 134.9266693 -9.64624023 124.84399414 C-8.83091785 113.17721103 -8.02194456 101.51000035 -7.21623665 89.84254962 C-6.44059475 78.61304962 -5.66014661 67.38388846 -4.87760735 56.15486717 C-4.54464533 51.37550118 -4.21344864 46.59601764 -3.8836689 41.81643105 C-3.49602905 36.2010498 -3.10422113 30.58597491 -2.70912933 24.9711132 C-2.56453431 22.90636068 -2.4214122 20.84150443 -2.27983665 18.77654266 C-2.08707612 15.9684768 -1.88909166 13.16082822 -1.68971252 10.35322571 C-1.63426114 9.52747412 -1.57880976 8.70172252 -1.52167803 7.85094815 C-1.11415253 2.22830506 -1.11415253 2.22830506 0 0 Z " fill="#FEFEFE" transform="translate(1628,466)"/>
<path d="M0 0 C2.47937626 0.00314611 4.95753909 -0.02032342 7.43676758 -0.0456543 C30.89289348 -0.1380363 55.29954401 5.2216269 72.61450195 22.05004883 C73.34024414 22.79770508 74.06598633 23.54536133 74.8137207 24.31567383 C75.50852539 25.00145508 76.20333008 25.68723633 76.91918945 26.39379883 C97.94037963 48.35016768 102.39735949 81.78616086 102.0246582 110.89770508 C101.31350551 135.67830368 92.24478567 160.22806659 74.35668945 177.71801758 C51.6344278 197.64683777 20.81391516 200.77598059 -8.1862793 199.31567383 C-30.38129103 197.49928378 -51.46231711 190.35806761 -68.1862793 175.31567383 C-68.81920898 174.76395508 -69.45213867 174.21223633 -70.10424805 173.64379883 C-87.95864345 157.09005474 -95.50008121 129.25572249 -96.4675293 105.70239258 C-97.16355317 77.02282546 -91.61118487 48.77145456 -71.3371582 27.3894043 C-58.83311988 14.70333144 -44.4555999 6.43960118 -27.1862793 2.31567383 C-26.43419189 2.12948486 -25.68210449 1.9432959 -24.90722656 1.75146484 C-16.64671459 -0.03332634 -8.41075064 -0.02223977 0 0 Z " fill="#FEFEFE" transform="translate(626.186279296875,1684.684326171875)"/>
<path d="M0 0 C1.26546158 -0.01300644 1.26546158 -0.01300644 2.55648804 -0.02627563 C28.24406914 -0.20927514 53.34390414 6.35255691 72.12890625 24.7578125 C94.96415031 48.62346786 98.57229605 82.51466451 97.93994141 113.93066406 C97.09679715 137.95866012 88.72364493 159.32557119 71.8125 176.5625 C71.21050781 177.18898438 70.60851563 177.81546875 69.98828125 178.4609375 C50.91270443 196.75031918 21.88805405 200.27080112 -3.23828125 199.80859375 C-31.07230013 198.89398891 -55.32839514 191.62939818 -75.1875 171.5625 C-75.85394531 170.91796875 -76.52039062 170.2734375 -77.20703125 169.609375 C-85.64568829 160.84688688 -90.22764866 149.21198238 -94.0625 137.875 C-94.34867188 137.03300049 -94.63484375 136.19100098 -94.9296875 135.32348633 C-98.5126802 124.19876769 -99.51973139 113.345329 -99.44824219 101.69946289 C-99.43752963 99.63072292 -99.44819942 97.56285435 -99.4609375 95.49414062 C-99.47507765 83.83971165 -98.33858095 72.62409369 -94.5 61.5625 C-94.24017334 60.80267822 -93.98034668 60.04285645 -93.71264648 59.26000977 C-86.13835312 37.89586836 -71.71086169 21.71225801 -52.1875 10.5625 C-51.33027344 10.07007813 -50.47304687 9.57765625 -49.58984375 9.0703125 C-46.83712926 7.66559924 -44.10261152 6.59241104 -41.1875 5.5625 C-40.2588916 5.2219458 -40.2588916 5.2219458 -39.31152344 4.87451172 C-26.45279155 0.38700241 -13.46993415 0.05554195 0 0 Z " fill="#FEFEFE" transform="translate(2638.1875,1684.4375)"/>
<path d="M0 0 C1.36419962 1.15491899 2.71862922 2.32148832 4.0625 3.5 C4.784375 4.06847656 5.50625 4.63695312 6.25 5.22265625 C21.10777073 17.37197919 30.78419685 36.5141404 33.0625 55.5 C34.663222 80.74324421 28.50643392 101.04431315 11.56640625 120.34375 C5.12034589 127.1546817 -1.73758158 132.00581394 -9.9375 136.5 C-10.9275 137.0671875 -11.9175 137.634375 -12.9375 138.21875 C-24.24202067 144.35205377 -35.03844722 145.74171627 -47.6875 145.8125 C-49.1247644 145.82095947 -49.1247644 145.82095947 -50.59106445 145.82958984 C-68.73610663 145.64493137 -87.28143211 138.58036775 -100.9375 126.5 C-103.42906145 123.95331551 -105.68225634 121.25585818 -107.9375 118.5 C-108.57558594 117.78328125 -109.21367188 117.0665625 -109.87109375 116.328125 C-124.4036506 99.44429677 -129.46124052 78.92542295 -128.15625 57.02197266 C-126.38406154 36.59038028 -116.61982388 20.04913619 -102.3828125 5.6796875 C-100.9375 4.5 -100.9375 4.5 -98.9375 4.5 C-98.9375 3.84 -98.9375 3.18 -98.9375 2.5 C-96.82085571 0.94036737 -94.72283509 -0.48144576 -92.5 -1.875 C-91.85909424 -2.28057129 -91.21818848 -2.68614258 -90.55786133 -3.10400391 C-85.84820333 -6.03680138 -81.14896411 -8.56544135 -75.9375 -10.5 C-75.23625 -10.77328125 -74.535 -11.0465625 -73.8125 -11.328125 C-49.06801044 -20.34218905 -20.90792718 -15.80755048 0 0 Z " fill="#FEFEFD" transform="translate(2014.9375,567.5)"/>
<path d="M0 0 C13.23597726 11.18403106 22.01831261 28.30514905 23.82128906 45.54467773 C23.97121506 49.26825369 23.99313119 52.9614146 23.9375 56.6875 C23.92468994 57.99976563 23.91187988 59.31203125 23.89868164 60.6640625 C23.47498976 81.00127254 18.11969083 99.05580584 3.4375 113.875 C-3.57180945 120.02133017 -10.86938491 124.54263922 -19.5625 127.875 C-20.31015625 128.17019531 -21.0578125 128.46539063 -21.828125 128.76953125 C-41.35875766 135.90031979 -63.49966937 134.68432121 -82.4375 126.5 C-84.15680222 125.64675464 -85.8657871 124.77232554 -87.5625 123.875 C-88.37847656 123.46894531 -89.19445313 123.06289062 -90.03515625 122.64453125 C-105.3189946 114.38496092 -115.95200218 99.68916921 -121.04150391 83.30566406 C-121.56875905 81.50123866 -122.06651168 79.68826904 -122.5625 77.875 C-122.93181641 76.57755859 -122.93181641 76.57755859 -123.30859375 75.25390625 C-128.04394194 54.84292266 -124.23881156 33.64923316 -113.76464844 15.74121094 C-103.68572642 0.09472842 -86.99754268 -10.64693072 -69.09423828 -15.04614258 C-45.04682267 -20.04624197 -19.44722192 -14.99223418 0 0 Z " fill="#0F458C" transform="translate(3061.5625,1396.125)"/>
<path d="M0 0 C14.19279403 12.21240417 21.05138715 29.47016704 23.1875 47.75 C24.50774355 71.79528672 19.72083211 91.84137128 4.54296875 110.8046875 C-7.29684701 123.81349773 -25.24778977 130.99433464 -42.45703125 131.88720703 C-64.98798129 132.78829422 -85.12233666 129.97030169 -102.3125 114.3125 C-116.36560984 100.85729698 -124.41098424 83.97580632 -125.0859375 64.50390625 C-125.35459978 51.03241181 -125.42769893 39.16630501 -119.8125 26.75 C-119.31621094 25.61949219 -118.81992188 24.48898437 -118.30859375 23.32421875 C-110.28931341 6.87986317 -95.92006176 -5.93048538 -78.8125 -12.25 C-51.7566043 -21.37251143 -22.69457334 -17.40953571 0 0 Z " fill="#0F458C" transform="translate(2316.8125,1871.25)"/>
<path d="M0 0 C18.71378018 -0.82981594 37.80414691 6.74152869 51.6171875 19.19921875 C52.20371094 19.69421875 52.79023437 20.18921875 53.39453125 20.69921875 C65.73202972 31.88969355 74.37054194 50.13132806 75.93701172 66.55175781 C76.08924064 70.04453801 76.13635158 73.51571184 76.1171875 77.01171875 C76.10751953 78.86047607 76.10751953 78.86047607 76.09765625 80.74658203 C75.9092682 90.13499977 74.83280149 97.69636626 70.6171875 106.19921875 C70.1830957 107.09036377 70.1830957 107.09036377 69.74023438 107.99951172 C65.54966474 116.43625834 60.33797141 123.56214567 53.6171875 130.19921875 C53.01648437 130.82183594 52.41578125 131.44445312 51.796875 132.0859375 C39.08678061 144.32834443 20.26793644 150.61185682 2.8671875 150.69921875 C-19.96168257 150.26051284 -38.38137076 141.12889873 -54.1328125 124.796875 C-67.06724353 109.86389474 -73.62025431 90.05084478 -72.7578125 70.38671875 C-71.52990081 53.84060871 -64.54717252 37.48718674 -53.3828125 25.19921875 C-52.72925781 24.45414063 -52.07570313 23.7090625 -51.40234375 22.94140625 C-37.81804027 8.34261016 -19.42178758 1.6237888 0 0 Z " fill="#FEFEFE" transform="translate(1590.3828125,720.80078125)"/>
<path d="M0 0 C1.00619385 0.00902344 2.0123877 0.01804687 3.04907227 0.02734375 C21.37001902 0.45152838 39.67749951 8.42749951 52.6875 21.4375 C66.96095501 37.1819713 71.73647027 55.52630117 70.83984375 76.33251953 C70.48292439 81.26418415 69.29780633 85.78260641 67.6875 90.4375 C67.19443359 91.91089844 67.19443359 91.91089844 66.69140625 93.4140625 C60.42996043 110.18347102 47.36415094 123.21681719 31.6875 131.4375 C15.88739382 138.61678966 -1.99914379 139.93452699 -18.62109375 134.82421875 C-37.47337625 127.74214437 -52.57896519 116.9990691 -61.21484375 98.17578125 C-67.61633269 82.20623054 -69.93069179 61.70077298 -63.6328125 45.2734375 C-62.97925781 43.86964844 -62.97925781 43.86964844 -62.3125 42.4375 C-61.81492187 41.35726562 -61.31734375 40.27703125 -60.8046875 39.1640625 C-52.16071601 21.91632403 -38.37128563 8.83251386 -19.89038086 2.6237793 C-13.1863622 0.61155893 -6.98212475 -0.07578326 0 0 Z " fill="#FEFEFE" transform="translate(1212.3125,595.5625)"/>
<path d="M0 0 C3.68686483 2.36398717 6.87042837 4.94223499 10 8 C10.58136719 8.56589844 11.16273438 9.13179687 11.76171875 9.71484375 C21.23136346 19.85237272 24.42931333 33.291114 24.27734375 46.81640625 C23.14378339 59.8284019 16.00827795 70.88685554 6.78515625 79.734375 C-5.53841003 89.75915543 -19.72726033 91.2793918 -35 90 C-46.57672553 87.68202083 -56.65761698 80.03996405 -64 71 C-71.73841487 58.44987845 -74.74436971 43.44114268 -71.53125 28.875 C-67.72925937 16.46850426 -59.33271359 6.17738101 -48 0 C-31.86752398 -8.07523549 -16.08769396 -8.56611673 0 0 Z " fill="#FEFEFD" transform="translate(2135,858)"/>
<path d="M0 0 C55.6223092 0 55.6223092 0 70.24609375 12.99609375 C78.94056534 21.95353612 83.84760157 34.16863682 84.375 46.5625 C84.12788064 59.59392763 79.65396576 73.68157577 70.7265625 83.41015625 C50.7896365 101.76836639 26.73882754 97 0 97 C0 64.99 0 32.98 0 0 Z " fill="#FCFCFC" transform="translate(2702,2281)"/>
<path d="M0 0 C9.86151778 7.04896369 16.95503835 16.11290211 19.77734375 28.078125 C21.7970535 41.36481065 20.5667967 54.15292115 12.9375 65.5625 C11.73557954 67.1255016 10.50774989 68.66906264 9.25 70.1875 C8.74984375 70.82300781 8.2496875 71.45851563 7.734375 72.11328125 C1.78406456 78.89002369 -8.93973264 84.60818362 -18.01733398 85.38037109 C-32.73343915 85.85868437 -44.41062572 85.87043237 -56.1875 75.9375 C-60.4628064 71.77324052 -63.72465886 67.310411 -66.75 62.1875 C-67.5853125 60.95 -67.5853125 60.95 -68.4375 59.6875 C-73.79400191 49.48463921 -74.672073 37.47194511 -71.90625 26.26171875 C-67.98270963 14.13320712 -60.38599923 5.1233248 -49.75 -1.8125 C-33.85718834 -9.69040233 -15.08696229 -9.39471943 0 0 Z " fill="#FEFEFB" transform="translate(1836.75,445.8125)"/>
<path d="M0 0 C1.24772455 1.04064422 2.47702022 2.10375849 3.6875 3.1875 C4.35265625 3.73792969 5.0178125 4.28835938 5.703125 4.85546875 C12.8938446 11.29143725 18.93716758 21.43818071 19.88037109 31.17944336 C20.42144491 45.26867763 19.14436663 56.94775363 9.625 68.12890625 C-0.48445576 78.87020299 -11.72216722 84.98831475 -26.625 85.5 C-40.03421538 85.16383583 -51.85571382 80.22256449 -61.1875 70.5 C-71.52875115 58.16932486 -74.4729961 45.52225704 -73.10546875 29.80859375 C-71.01149749 17.31379821 -62.86892799 6.75990638 -52.90234375 -0.58984375 C-36.79717798 -11.02884977 -15.77933877 -11.16174157 0 0 Z " fill="#FEFEFE" transform="translate(1107.3125,825.8125)"/>
<path d="M0 0 C9.32516188 7.91011455 15.93098612 17.49250956 17.2265625 29.859375 C18.2802535 44.32835135 15.10167723 56.55265177 5.63671875 67.93359375 C-3.39275386 77.3549114 -15.69238905 82.04406037 -28.67578125 82.55859375 C-41.47127869 82.03111979 -53.5876474 76.67337467 -62.42578125 67.37109375 C-71.64213947 55.98357422 -74.59250523 43.43058878 -73.61328125 29.05859375 C-72.96679531 25.53831266 -71.96911063 22.36563846 -70.61328125 19.05859375 C-70.35804687 18.38699219 -70.1028125 17.71539062 -69.83984375 17.0234375 C-65.00270512 5.86251673 -55.03671069 -2.42116708 -43.99609375 -7.03515625 C-28.85724306 -11.88677606 -12.70391011 -9.43773293 0 0 Z " fill="#FEFEFD" transform="translate(1662.61328125,118.94140625)"/>
<path d="M0 0 C8.43788556 7.01561636 16.05529429 16.97879471 17.2355957 28.24975586 C17.83239408 39.29644007 17.84819313 49.26777961 12 59 C11.46890625 59.90105469 10.9378125 60.80210938 10.390625 61.73046875 C3.90137441 71.80666749 -6.14723353 78.62488685 -17.875 81.3125 C-30.25819226 83.30231092 -42.00984578 82.04342173 -52.8125 75.25 C-63.09866117 67.67667255 -69.67164531 58.47003476 -73 46 C-74.47588546 32.49350464 -73.07089494 21.10995913 -65.25 9.75 C-48.90692324 -10.30362225 -21.52613811 -16.15344026 0 0 Z " fill="#FEFEFE" transform="translate(1629,1098)"/>
<path d="M0 0 C52.47126437 0 52.47126437 0 63 10 C69.26883789 17.81218122 70.58745022 26.29335525 70.44140625 36.13671875 C69.4614146 44.71381383 65.0794171 51.90860396 58.734375 57.6640625 C55.26962142 60.33285918 52.39727902 62 48 62 C51.07905925 67.66125319 54.62671582 72.80862315 58.4375 78 C60.10380702 80.28565934 61.76974658 82.57156909 63.43310547 84.859375 C64.45287523 86.2525413 65.48268852 87.63842942 66.52392578 89.015625 C70 93.67814371 70 93.67814371 70 97 C62.43725289 98.05614424 62.43725289 98.05614424 59.30957031 95.7578125 C57.75888232 93.91524279 56.43879356 92.01830839 55.125 90 C54.61001953 89.28900146 54.09503906 88.57800293 53.56445312 87.84545898 C50.93617301 84.16368468 48.69596148 80.50539568 46.7734375 76.41015625 C43.46703761 69.795975 43.46703761 69.795975 38 65 C28.89023396 62.77476643 19.28774604 63.37154149 10 64 C10.00523682 64.96413818 10.01047363 65.92827637 10.01586914 66.92163086 C10.03392118 70.48672564 10.04543274 74.05181636 10.05493164 77.61694336 C10.0599714 79.16219766 10.0668032 80.70744716 10.07543945 82.25268555 C10.08752076 84.46925029 10.09323173 86.68575218 10.09765625 88.90234375 C10.10281754 89.5971434 10.10797882 90.29194305 10.11329651 91.00779724 C10.11349277 92.6722933 10.06189129 94.33665499 10 96 C9.505 96.495 9.505 96.495 9 97 C6.03 97 3.06 97 0 97 C0 64.99 0 32.98 0 0 Z " fill="#433F3F" transform="translate(667,2281)"/>
<path d="M0 0 C51.76223118 0 51.76223118 0 61.17578125 8.87890625 C66.13463624 14.64476976 69.7155372 21.31950443 70 29 C70.10828125 29.99193359 70.10828125 29.99193359 70.21875 31.00390625 C70.7961801 39.07349187 67.67972573 46.77058694 62.5625 52.9375 C61.716875 53.618125 60.87125 54.29875 60 55 C58.700625 56.2684375 58.700625 56.2684375 57.375 57.5625 C48.065971 64.98556658 37.04393283 64.50738447 25.8125 64.25 C24.2728099 64.22988817 22.7330942 64.21164574 21.19335938 64.1953125 C17.46169792 64.15172461 13.73101842 64.08296116 10 64 C10.00523682 64.96413818 10.01047363 65.92827637 10.01586914 66.92163086 C10.03392118 70.48672564 10.04543274 74.05181636 10.05493164 77.61694336 C10.0599714 79.16219766 10.0668032 80.70744716 10.07543945 82.25268555 C10.08752076 84.46925029 10.09323173 86.68575218 10.09765625 88.90234375 C10.10281754 89.5971434 10.10797882 90.29194305 10.11329651 91.00779724 C10.11349277 92.6722933 10.06189129 94.33665499 10 96 C9.505 96.495 9.505 96.495 9 97 C6.03 97 3.06 97 0 97 C0 64.99 0 32.98 0 0 Z " fill="#434040" transform="translate(1869,2281)"/>
<path d="M0 0 C2.97 0 5.94 0 9 0 C9.39155273 0.68288086 9.78310547 1.36576172 10.18652344 2.06933594 C17.2155212 14.31776462 24.26787573 26.54634682 31.56591797 38.63720703 C35.9112431 45.83648433 40.19256737 53.07254277 44.46142578 60.31738281 C47.94616444 66.2286556 51.46121315 72.12092065 55 78 C58.01765146 74.39047136 60.49263904 70.68887616 62.87890625 66.63671875 C63.24361023 66.01997284 63.60831421 65.40322693 63.98406982 64.76779175 C64.77028003 63.43711826 65.55472026 62.10539771 66.33755493 60.7727356 C67.58049557 58.65686598 68.82809084 56.54380455 70.0769043 54.43139648 C71.82852203 51.4674027 73.57822395 48.50229227 75.32617188 45.53613281 C79.23755451 38.89920849 83.15684094 32.26698617 87.08346558 25.6390686 C88.28446888 23.6098612 89.4823085 21.57881104 90.67993164 19.54760742 C92.12548205 17.09816325 93.58569316 14.65865641 95.06103516 12.22705078 C96.27543659 10.20590269 97.45785187 8.16479615 98.59130859 6.09716797 C99.07035645 5.26975098 99.5494043 4.44233398 100.04296875 3.58984375 C100.42864014 2.88593506 100.81431152 2.18202637 101.21166992 1.45678711 C103 0 103 0 111 0 C111 32.01 111 64.02 111 97 C108.03 97 105.06 97 102 97 C101.67 71.92 101.34 46.84 101 21 C98.03 26.28 95.06 31.56 92 37 C89.39558023 41.36958694 86.78525852 45.73278933 84.1529541 50.08520508 C82.15385455 53.40525543 80.18307348 56.74201211 78.2109375 60.078125 C77.40627148 61.43751272 76.60158396 62.79688771 75.796875 64.15625 C74.58086357 66.21109322 73.36540229 68.26625406 72.15136719 70.32226562 C67.23776206 78.64122298 62.2587322 86.8928769 57 95 C55.2097168 94.82861328 55.2097168 94.82861328 53 94 C51.31176758 91.73779297 51.31176758 91.73779297 49.64453125 88.7421875 C49.02690918 87.64938477 48.40928711 86.55658203 47.77294922 85.43066406 C47.11939906 84.2454797 46.46591741 83.06025756 45.8125 81.875 C45.1344485 80.66811643 44.45491696 79.46206322 43.77392578 78.25683594 C42.43720522 75.89011221 41.10530428 73.52078933 39.77685547 71.14941406 C37.70484679 67.47685127 35.56719836 63.85169372 33.375 60.25 C29.09487737 53.17602124 24.88943432 46.05920971 20.69091797 38.93652344 C20.17029785 38.05383789 19.64967773 37.17115234 19.11328125 36.26171875 C18.65735596 35.48787842 18.20143066 34.71403809 17.73168945 33.91674805 C15.1699564 29.60192713 12.58173108 25.30288513 10 21 C9.67 46.08 9.34 71.16 9 97 C6.03 97 3.06 97 0 97 C0 64.99 0 32.98 0 0 Z " fill="#423E3E" transform="translate(1662,2281)"/>
<path d="M0 0 C7 0 7 0 9.5546875 2.01953125 C10.70324219 3.40205078 10.70324219 3.40205078 11.875 4.8125 C12.29861816 5.31096436 12.72223633 5.80942871 13.15869141 6.32299805 C14.46071649 7.86548285 15.73226096 9.4292793 17 11 C17.7321875 11.886875 18.464375 12.77375 19.21875 13.6875 C20.68212859 15.46900437 22.13761715 17.25701346 23.5859375 19.05078125 C26.33861873 22.4136847 29.16181769 25.70929569 32 29 C36.29995131 33.98921019 40.50486032 39.04221923 44.65625 44.15625 C47.39302116 47.47686567 50.19105572 50.74044414 53 54 C57.39984138 59.10634969 61.71905422 64.26434432 65.96484375 69.5 C68.28679231 72.35229766 70.64545721 75.17454865 73 78 C73.33 52.26 73.66 26.52 74 0 C76.97 0 79.94 0 83 0 C83 32.01 83 64.02 83 97 C77 97 77 97 74.98046875 95.63671875 C74.38878906 94.99347656 73.79710937 94.35023438 73.1875 93.6875 C72.16462891 92.58341797 72.16462891 92.58341797 71.12109375 91.45703125 C68.17132811 88.04008358 65.30471069 84.56505248 62.4765625 81.046875 C59.74783733 77.68976832 56.94822081 74.40257373 54.125 71.125 C48.83701671 64.9801404 43.58887681 58.80313858 38.35888672 52.60888672 C36.53249216 50.44648282 34.7040719 48.28579698 32.87548828 46.12524414 C31.96355911 45.04773039 31.05177362 43.97009502 30.14013672 42.89233398 C27.76349415 40.08268434 25.38502848 37.27460462 23.00390625 34.46875 C22.51148438 33.88802734 22.0190625 33.30730469 21.51171875 32.70898438 C20.57608423 31.60564178 19.63992403 30.50274465 18.703125 29.40039062 C16.0816914 26.30773255 13.52675565 23.17020273 11 20 C10.9845388 21.42486977 10.9845388 21.42486977 10.96876526 22.87852478 C10.87119905 31.81097864 10.76848134 40.74336022 10.66066074 49.67569637 C10.60539035 54.26839178 10.55196391 58.8610935 10.50268555 63.45385742 C10.45510253 67.88239331 10.40276219 72.31084929 10.34705925 76.73929024 C10.32660813 78.43263331 10.3078997 80.12599831 10.29092598 81.81937981 C10.26694272 84.18297163 10.23688034 86.54641104 10.20532227 88.90991211 C10.1995668 89.61697296 10.19381134 90.32403381 10.18788147 91.05252075 C10.11405216 95.88594784 10.11405216 95.88594784 9 97 C6.03 97 3.06 97 0 97 C0 64.99 0 32.98 0 0 Z " fill="#444040" transform="translate(937,2281)"/>
<path d="M0 0 C55.6223092 0 55.6223092 0 70.24609375 12.99609375 C78.94056534 21.95353612 83.84760157 34.16863682 84.375 46.5625 C84.12788064 59.59392763 79.65396576 73.68157577 70.7265625 83.41015625 C50.7896365 101.76836639 26.73882754 97 0 97 C0 64.99 0 32.98 0 0 Z M9 9 C9 35.07 9 61.14 9 88 C37.41582054 89.57591339 37.41582054 89.57591339 62 78 C69.50331176 70.49668824 74.2160695 60.5451822 74.4375 49.875 C73.81248312 37.39111022 71.06633832 27.06633832 62 18 C58.76782388 15.80485759 55.43700891 13.85542595 52 12 C51.40316406 11.63390625 50.80632813 11.2678125 50.19140625 10.890625 C39.51024987 6.54962027 14.80352018 9 9 9 Z " fill="#423E3E" transform="translate(2702,2281)"/>
<path d="M0 0 C0.804375 0.804375 1.60875 1.60875 2.4375 2.4375 C2.4375 3.7575 2.4375 5.0775 2.4375 6.4375 C-0.0625 8.6875 -0.0625 8.6875 -2.5625 10.4375 C-5.53451102 9.03851283 -8.13266987 7.39419648 -10.8125 5.5 C-19.68720787 -0.49444848 -28.93783814 -2.61648584 -39.5625 -1.5625 C-51.0208864 1.22399964 -59.7300935 5.89831214 -66.4375 15.6875 C-72.24643283 25.56672915 -74.31565988 36.22478082 -71.90625 47.51171875 C-68.75162043 58.13139848 -63.44346674 65.7420852 -54.28515625 71.96484375 C-47.60247952 75.5794336 -41.84764999 76.97041306 -34.25 76.875 C-33.41839355 76.86887695 -32.58678711 76.86275391 -31.72998047 76.85644531 C-22.71781324 76.62828918 -15.36757771 74.5840218 -8.5625 68.4375 C-7.9025 68.4375 -7.2425 68.4375 -6.5625 68.4375 C-6.5625 64.4775 -6.5625 60.5175 -6.5625 56.4375 C-15.4725 56.4375 -24.3825 56.4375 -33.5625 56.4375 C-33.5625 53.4675 -33.5625 50.4975 -33.5625 47.4375 C-28.45386104 47.4128499 -23.34525641 47.39466393 -18.23657227 47.38256836 C-16.49730832 47.37752796 -14.75804864 47.3706957 -13.01879883 47.36206055 C-10.52424063 47.34998208 -8.02973827 47.34426892 -5.53515625 47.33984375 C-4.75286148 47.33468246 -3.97056671 47.32952118 -3.16456604 47.32420349 C-1.29682886 47.32400774 0.57079204 47.37550306 2.4375 47.4375 C4.9320146 49.9320146 3.86416207 56.22154989 3.9375 59.5625 C3.99164062 60.59632813 4.04578125 61.63015625 4.1015625 62.6953125 C4.19580687 67.9729971 4.09041751 71.50562423 0.34375 75.44140625 C-3.06042836 78.29201761 -6.55973578 80.34243268 -10.5625 82.25 C-12.295 83.09498047 -12.295 83.09498047 -14.0625 83.95703125 C-25.99438194 89.00411078 -38.44620632 88.9728062 -50.59375 84.703125 C-63.09409044 79.3740325 -73.20723293 71.13487712 -78.85546875 58.55859375 C-83.81579249 45.39672391 -84.98010212 30.47426274 -79.16796875 17.43359375 C-72.04247638 4.13614206 -61.7449819 -5.23749249 -47.4609375 -10.30859375 C-30.70439078 -14.85859239 -13.57906359 -10.29482495 0 0 Z " fill="#454141" transform="translate(1195.5625,2291.5625)"/>
<path d="M0 0 C2.97 0 5.94 0 9 0 C9 14.85 9 29.7 9 45 C29.46 45 49.92 45 71 45 C71 30.15 71 15.3 71 0 C73.97 0 76.94 0 80 0 C80 32.01 80 64.02 80 97 C77.36 97 74.72 97 72 97 C71 96 71 96 70.88647461 92.03100586 C70.88672579 90.25894395 70.89229022 88.48687716 70.90234375 86.71484375 C70.90335083 85.8902063 70.90435791 85.06556885 70.90539551 84.21594238 C70.91064408 81.12311419 70.92460523 78.03030576 70.9375 74.9375 C70.958125 68.028125 70.97875 61.11875 71 54 C50.54 54 30.08 54 9 54 C9 68.19 9 82.38 9 97 C6.03 97 3.06 97 0 97 C0 64.99 0 32.98 0 0 Z " fill="#403C3C" transform="translate(386,2281)"/>
<path d="M0 0 C21.12 0 42.24 0 64 0 C64 2.97 64 5.94 64 9 C46.18 9 28.36 9 10 9 C10 20.88 10 32.76 10 45 C21.22 45 32.44 45 44 45 C44 47.97 44 50.94 44 54 C32.78 54 21.56 54 10 54 C10 65.22 10 76.44 10 88 C27.82 88 45.64 88 64 88 C64 90.97 64 93.94 64 97 C42.88 97 21.76 97 0 97 C0 64.99 0 32.98 0 0 Z " fill="#444040" transform="translate(2545,2281)"/>
<path d="M0 0 C6.58945648 3.80367 11.87603557 9.38493502 14.1875 16.73828125 C15.80908778 25.12131096 15.21207584 32.70579743 10.625 40 C6.48646327 45.05821156 0.83297308 48.93067564 -5.375 51 C-14.12435002 51.85898247 -21.14490908 51.24785158 -28.375 46 C-34.24063371 40.79965556 -37.83748766 35.17071729 -38.65234375 27.33203125 C-38.93509098 19.1323617 -37.41434673 13.26200436 -32.3125 6.8125 C-23.67037992 -2.33479621 -11.70127353 -5.2282286 0 0 Z " fill="#FDFEFE" transform="translate(1405.375,920)"/>
<path d="M0 0 C0.886875 0.556875 1.77375 1.11375 2.6875 1.6875 C8.35150237 7.35150237 11.09315759 14.20558451 11.3125 22.125 C11.19958083 29.19185817 9.69835282 34.88284586 5.01171875 40.296875 C-0.79996708 45.79739975 -5.96757428 48.67996621 -13.9375 49.3125 C-22.464896 48.89530841 -28.7253548 46.98694313 -35 41 C-40.63303292 34.63781815 -42.50409644 28.33911641 -42.30859375 19.875 C-41.39484521 11.36210225 -37.56798768 5.32259047 -31 0 C-22.17480989 -6.30370722 -8.84294536 -6.057101 0 0 Z " fill="#FDFEFE" transform="translate(1480,632)"/>
<path d="M0 0 C6.47750306 4.28453236 11.0416529 9.72098663 12.99609375 17.3203125 C14.15381322 26.02505226 13.16224915 33.11385269 7.99609375 40.3203125 C3.14009785 45.89928545 -3.36402416 49.66321937 -10.70703125 50.703125 C-19.74224222 51.08169529 -26.85800464 48.10305086 -33.5 42.03125 C-38.98446436 35.79178146 -40.44764304 28.35057198 -40.33984375 20.265625 C-39.55086955 13.34833957 -36.16612208 8.05742719 -31.12890625 3.3828125 C-22.06962643 -3.74359686 -10.46664167 -5.49258627 0 0 Z " fill="#FDFDFE" transform="translate(1054.00390625,527.6796875)"/>
<path d="M0 0 C6.7191482 3.8785327 11.8584793 9.46333351 14.1875 16.9453125 C16.02729943 25.58579913 13.96663573 33.65140553 9.3046875 41.11328125 C5.13610274 46.43221317 -0.07487656 48.89995885 -6.375 51 C-15.68585895 51.70784308 -22.19867446 50.76266489 -29.5625 44.75 C-34.89711889 39.85993269 -38.04267638 34.53110469 -38.578125 27.23046875 C-38.72213222 17.88200007 -36.88062418 11.77691196 -30.44140625 4.8671875 C-21.86708918 -2.88049408 -10.63504202 -4.75182728 0 0 Z " fill="#FDFDFE" transform="translate(1226.375,211)"/>
<path d="M0 0 C5.73685249 4.77246781 9.35584553 11.54509995 10.41796875 18.890625 C10.81712143 27.30519505 8.77454428 33.73452352 3.16796875 40.0703125 C-4.13075952 46.95155927 -10.94353606 48.61920339 -20.8828125 48.34375 C-28.05705774 47.55260516 -32.47743791 43.96798385 -37.45703125 38.9765625 C-41.41997583 33.89998033 -42.48293769 29.4008411 -42.375 23.0625 C-42.38660156 22.38509766 -42.39820313 21.70769531 -42.41015625 21.00976562 C-42.37024774 14.0723366 -40.15149711 8.64907855 -35.5234375 3.41796875 C-25.7004002 -5.72501212 -11.53703546 -6.96342497 0 0 Z " fill="#FEFDFC" transform="translate(2061,375)"/>
<path d="M0 0 C8.105625 -0.1546875 8.105625 -0.1546875 16.375 -0.3125 C18.05899902 -0.35802002 19.74299805 -0.40354004 21.47802734 -0.45043945 C30.91081635 -0.59945481 38.70288017 0.00075071 45.92333984 6.81518555 C51.1087949 12.35634773 52.4799947 17.66111398 52.30859375 25.15234375 C51.54350327 32.21248247 48.53242844 37.17304325 43.171875 41.7109375 C34.40080253 46.91678987 25.86711066 46.35082766 16 46.1875 C10.72 46.125625 5.44 46.06375 0 46 C0 30.82 0 15.64 0 0 Z " fill="#FBFBFB" transform="translate(676,2290)"/>
<path d="M0 0 C6.3167956 5.45882676 10.33257226 11.31419156 11.30859375 19.62890625 C11.6918737 27.97976341 9.33889658 34.17046793 4.375 40.8125 C-0.20314728 45.72173524 -5.70461386 47.6555891 -12.2890625 48.34375 C-20.84084692 48.57966129 -26.96477474 47.46134359 -33.58203125 41.66015625 C-38.93427018 35.3937608 -41.33610777 27.70597769 -41.20703125 19.62109375 C-40.58688184 11.76976824 -36.68960916 6.26902204 -31 1 C-21.61951244 -5.79546803 -9.87631982 -6.00957144 0 0 Z " fill="#FDFDFE" transform="translate(1389,388)"/>
<path d="M0 0 C5.259375 -0.0825 10.51875 -0.165 15.9375 -0.25 C17.578396 -0.28641602 19.21929199 -0.32283203 20.90991211 -0.36035156 C30.28574493 -0.43144575 37.37219171 0.19491318 44.8125 6.3125 C50.06185927 12.76171282 51.65253652 16.7114609 51.30859375 25.0703125 C50.51540278 32.60060649 48.07362626 36.54065721 42.328125 41.45703125 C36.64956569 45.22050596 31.86515767 46.44645515 25.09765625 46.29296875 C24.45598511 46.28994751 23.81431396 46.28692627 23.15319824 46.28381348 C20.78946511 46.26828928 18.42596389 46.22640712 16.0625 46.1875 C10.761875 46.125625 5.46125 46.06375 0 46 C0 30.82 0 15.64 0 0 Z " fill="#FBFBFB" transform="translate(1878,2290)"/>
<path d="M0 0 C0.66 0.66 1.32 1.32 2 2 C1.76208141 4.45849212 1.136119 5.81202615 -0.3125 7.8125 C-2 9 -2 9 -3.87109375 8.72265625 C-6.13334631 7.95473566 -7.77968344 6.96839766 -9.75 5.625 C-17.99402485 0.40630537 -25.15217958 -1.10649668 -35 0 C-40.42876315 1.59518159 -43.86636586 4.23687611 -47 9 C-48.61152376 12.22304752 -48.45074023 15.50513008 -48 19 C-43.07629123 29.46288113 -30.22775472 32.44146319 -20.19921875 36.16210938 C-12.09457382 39.27362663 -5.11266122 42.89484337 0.4375 49.75 C0.91058594 50.32234375 1.38367187 50.8946875 1.87109375 51.484375 C5.5481109 56.42099318 4.44429275 63.146926 4 69 C2.3357319 75.66767284 -2.3726088 80.31401403 -8 84 C-17.89947926 89.12443632 -28.17747754 90.99860923 -39.01171875 87.74609375 C-47.39139546 84.60165711 -53.59628801 80.23356505 -60 74 C-58.92598892 71.08482708 -58.22189824 69.22189824 -56 67 C-52.45290454 67.31909018 -50.50920217 69.0428092 -47.875 71.3125 C-40.79197351 76.93725633 -33.87000653 79.75299317 -24.74609375 79.390625 C-18.33507571 78.47867364 -12.06323194 76.24834126 -8 71 C-5.14204968 66.71307452 -5.41800606 63.02559632 -6 58 C-8.29707423 52.02760701 -12.91982812 50.09084027 -18.4375 47.5078125 C-23.02367391 45.56673451 -27.66875722 43.82552419 -32.34106445 42.10498047 C-42.40949296 38.3926805 -51.02749312 34.13932882 -57.0625 24.8125 C-58.85992487 17.50297218 -59.45291605 9.95666685 -56 3.0625 C-52.11944808 -2.89496703 -46.21196129 -7.29292999 -39.45703125 -9.53125 C-24.30485135 -12.42196795 -12.50199009 -8.2093764 0 0 Z " fill="#454141" transform="translate(1458,2290)"/>
<path d="M0 0 C20.46 0 40.92 0 62 0 C62 2.97 62 5.94 62 9 C44.51 9 27.02 9 9 9 C9 20.88 9 32.76 9 45 C19.89 45 30.78 45 42 45 C42 47.64 42 50.28 42 53 C41 54 41 54 37.94897461 54.11352539 C36.60008731 54.11327443 35.25119355 54.10771815 33.90234375 54.09765625 C32.60546631 54.09515869 31.30858887 54.09266113 29.97241211 54.09008789 C28.31089111 54.08098389 26.64937012 54.07187988 24.9375 54.0625 C19.678125 54.041875 14.41875 54.02125 9 54 C9 68.19 9 82.38 9 97 C6.36 97 3.72 97 1 97 C-0.89977088 95.10022912 -0.12012643 92.31060935 -0.12442017 89.78329468 C-0.11902725 88.44218124 -0.11902725 88.44218124 -0.11352539 87.07397461 C-0.11367142 86.13748581 -0.11381744 85.20099701 -0.1139679 84.23612976 C-0.11326837 81.12484461 -0.10547415 78.01361851 -0.09765625 74.90234375 C-0.09579221 72.75142957 -0.09436824 70.60051497 -0.09336853 68.44960022 C-0.08954225 62.77618242 -0.07971102 57.10279005 -0.06866455 51.42938232 C-0.05665878 44.62876664 -0.05204872 37.82814247 -0.04621124 31.02751923 C-0.03649932 20.68499511 -0.01734353 10.34252683 0 0 Z " fill="#413D3D" transform="translate(2286,2281)"/>
<path d="M0 0 C3.3 0 6.6 0 10 0 C10 29.04 10 58.08 10 88 C26.5 88 43 88 60 88 C60 90.97 60 93.94 60 97 C52.32463373 97.02312821 44.64927104 97.04091753 36.97387791 97.05181217 C33.41022578 97.05703995 29.84659743 97.06413569 26.28295898 97.07543945 C22.18993903 97.08834176 18.0969442 97.09322906 14.00390625 97.09765625 C12.07581871 97.10539818 12.07581871 97.10539818 10.10877991 97.11329651 C8.33705666 97.11340981 8.33705666 97.11340981 6.52954102 97.11352539 C4.96067894 97.11685631 4.96067894 97.11685631 3.36012268 97.12025452 C1 97 1 97 0 96 C-0.0952822 93.01701786 -0.12552175 90.05723655 -0.11352539 87.07397461 C-0.11367142 86.13748581 -0.11381744 85.20099701 -0.1139679 84.23612976 C-0.11326837 81.12484461 -0.10547415 78.01361851 -0.09765625 74.90234375 C-0.09579221 72.75142957 -0.09436824 70.60051497 -0.09336853 68.44960022 C-0.08954225 62.77618242 -0.07971102 57.10279005 -0.06866455 51.42938232 C-0.0584528 45.64498234 -0.05387142 39.86057827 -0.04882812 34.07617188 C-0.03808885 22.71743672 -0.02101111 11.35872047 0 0 Z " fill="#454141" transform="translate(2028,2281)"/>
<path d="M0 0 C3.3 0 6.6 0 10 0 C10 32.01 10 64.02 10 97 C6.7 97 3.4 97 0 97 C0 64.99 0 32.98 0 0 Z " fill="#4C4949" transform="translate(2439,2281)"/>
<path d="M0 0 C2.97 0 5.94 0 9 0 C9 32.01 9 64.02 9 97 C6.03 97 3.06 97 0 97 C0 64.99 0 32.98 0 0 Z " fill="#413D3D" transform="translate(2183,2281)"/>
<path d="M0 0 C2.97 0 5.94 0 9 0 C9 32.01 9 64.02 9 97 C6.03 97 3.06 97 0 97 C0 64.99 0 32.98 0 0 Z " fill="#403C3C" transform="translate(1556,2281)"/>
<path d="M0 0 C2.97 0 5.94 0 9 0 C9 32.01 9 64.02 9 97 C6.03 97 3.06 97 0 97 C0 64.99 0 32.98 0 0 Z " fill="#413D3D" transform="translate(831,2281)"/>
<path d="M0 0 C2.97 0 5.94 0 9 0 C9 32.01 9 64.02 9 97 C6.03 97 3.06 97 0 97 C0 64.99 0 32.98 0 0 Z " fill="#403C3C" transform="translate(563,2281)"/>
</svg>
