
        <svg xmlns="http://www.w3.org/2000/svg" xmlns:xlink="http://www.w3.org/1999/xlink" version="1.1" width="3171.4285714285716" height="2464.5628286377964" viewBox="0 0 3171.4285714285716 2464.5628286377964">
			
			<g transform="scale(8.57142857142857) translate(10, 10)">
				<defs id="SvgjsDefs6188"><linearGradient id="SvgjsLinearGradient6195"><stop id="SvgjsStop6196" stop-color="#26275f" offset="0"/><stop id="SvgjsStop6197" stop-color="#813e96" offset="0.14"/><stop id="SvgjsStop6198" stop-color="#2e64af" offset="0.29"/><stop id="SvgjsStop6199" stop-color="#3faa49" offset="0.5"/><stop id="SvgjsStop6200" stop-color="#f2e64a" offset="0.71"/><stop id="SvgjsStop6201" stop-color="#f2903b" offset="0.86"/><stop id="SvgjsStop6202" stop-color="#ed4533" offset="1"/></linearGradient></defs><g id="SvgjsG6189" featureKey="phAakL-0" transform="matrix(1.5607580028474566,0,0,1.5607580028474566,97.04013210164122,-13.890748606870078)" fill="#fff"><path xmlns="http://www.w3.org/2000/svg" d="M89.2,64.3c-2.4,0-4.4,1.5-5.2,3.5l-26-5.2c0-0.2,0-0.3,0-0.5c0-0.7-0.1-1.4-0.3-2.1l14-6.1c1.4,2.3,3.9,3.9,6.8,3.9  c4.4,0,8-3.6,8-8c0-3.2-1.9-6-4.7-7.2l1.9-6.5c0.2,0,0.4,0.1,0.6,0.1c1,0,2-0.4,2.7-1.1c1.6-1.5,1.7-4,0.2-5.6  c-0.7-0.8-1.8-1.2-2.9-1.2c-1,0-2,0.4-2.7,1.1c-0.8,0.7-1.2,1.7-1.2,2.8c0,1.1,0.3,2.1,1.1,2.8c0.4,0.4,0.8,0.7,1.3,0.9l-1.8,6.4  c-0.8-0.2-1.6-0.4-2.4-0.4c-2.2,0-4.2,0.9-5.6,2.3l-2-2c1.7-2.1,1.7-5.2-0.2-7.2c-1-1.1-2.5-1.7-4-1.7c-1.4,0-2.7,0.5-3.7,1.5  c-0.6,0.6-1.1,1.3-1.4,2.1l-8.4-1.4l1.1-15.8c2.7-0.3,4.8-2.6,4.8-5.4c0-3-2.4-5.4-5.4-5.4s-5.4,2.4-5.4,5.4c0,2.5,1.7,4.7,4.1,5.3  l-1.1,15.6L38,32.8c-0.1-0.9-0.4-1.7-1-2.4c-0.7-0.8-1.8-1.2-2.9-1.2c-0.8,0-1.6,0.3-2.3,0.7l-6.6-7.2c0.6-0.7,1-1.6,1-2.5  c0-2.2-1.8-4-4-4s-4,1.8-4,4s1.8,4,4,4c0.9,0,1.6-0.3,2.3-0.7l6.6,7.2c-1.2,1.5-1.3,3.6,0,5.1L25,45.6c-0.9-0.4-1.9-0.6-2.9-0.6  c-1.8,0-3.6,0.7-4.9,1.9c-0.3,0.3-0.6,0.6-0.8,0.9l-3.7-2.4c0.3-0.5,0.4-1.1,0.4-1.7c0-2.2-1.8-4-4-4s-4,1.8-4,4s1.8,4,4,4  c1.2,0,2.3-0.6,3-1.4l3.7,2.4c-1.5,2.6-1.1,6.1,1,8.4c0.3,0.3,0.5,0.5,0.8,0.7l-3.2,4.5c-0.7-0.3-1.5-0.5-2.3-0.5  c-3,0-5.5,2.4-5.5,5.5s2.4,5.5,5.5,5.5s5.5-2.4,5.5-5.5c0-1.4-0.6-2.8-1.5-3.7l3.4-4.6c0.8,0.3,1.7,0.5,2.7,0.5  c1.2,0,2.4-0.3,3.4-0.9L33.1,70c-0.9,0.7-1.4,1.8-1.4,3c0,2.2,1.8,4,4,4s4-1.8,4-4s-1.8-4-4-4c-0.6,0-1.2,0.2-1.7,0.4l-7.5-11.6  c0.2-0.2,0.4-0.3,0.6-0.5c2.9-2.7,3-7.2,0.3-10.1c-0.2-0.2-0.4-0.4-0.7-0.6l6-9.8c0.4,0.2,0.9,0.3,1.3,0.3c1,0,2-0.4,2.7-1.1  c0.4-0.4,0.7-0.8,0.9-1.2l13.4,2.3L50,54.5c-1.6,0.1-3,0.7-4.2,1.6L43.9,54c0.6-0.7,1-1.6,1-2.6c0-2.2-1.8-4-4-4s-4,1.8-4,4  s1.8,4,4,4c0.8,0,1.6-0.3,2.3-0.7l1.9,2.1c-1.3,1.4-2.1,3.2-2.1,5.3c0,4.1,3.2,7.4,7.2,7.6l0.3,12.2c-2.7,0.3-4.8,2.6-4.8,5.4  c0,3,2.4,5.4,5.4,5.4s5.4-2.4,5.4-5.4c0-2.9-2.2-5.2-5.1-5.4l-0.3-12.2c3-0.3,5.5-2.3,6.5-5.1l26,5.2c0,0,0,0.1,0,0.1  c0,3.1,2.5,5.6,5.6,5.6s5.6-2.5,5.6-5.6S92.2,64.3,89.2,64.3z M83,30.7c0.4-0.3,0.8-0.5,1.3-0.5c0.5,0,1.1,0.2,1.4,0.6  c0.7,0.8,0.7,2-0.1,2.8c-0.8,0.7-2.1,0.7-2.8-0.1c-0.4-0.4-0.5-0.9-0.5-1.4S82.6,31,83,30.7z M9.2,45.7c-1.1,0-2-0.9-2-2  c0-1.1,0.9-2,2-2s2,0.9,2,2C11.2,44.8,10.3,45.7,9.2,45.7z M12.2,70.6c-1.9,0-3.5-1.6-3.5-3.5s1.6-3.5,3.5-3.5s3.5,1.6,3.5,3.5  S14.1,70.6,12.2,70.6z M37.6,73.1c0,1.1-0.9,2-2,2c-1.1,0-2-0.9-2-2c0-1.1,0.9-2,2-2C36.7,71.1,37.6,72,37.6,73.1z M25.7,55.9  c-1,0.9-2.2,1.4-3.5,1.4c-1.4,0-2.8-0.6-3.8-1.6c-1.9-2.1-1.8-5.3,0.2-7.3c1-0.9,2.2-1.4,3.5-1.4c1.4,0,2.8,0.6,3.8,1.6  C27.9,50.7,27.8,54,25.7,55.9z M22.2,22.1c-1.1,0-2-0.9-2-2c0-1.1,0.9-2,2-2s2,0.9,2,2C24.1,21.2,23.3,22.1,22.2,22.1z M35.5,34.6  c-0.8,0.7-2.1,0.7-2.8-0.1c-0.7-0.8-0.7-2,0.1-2.8c0.4-0.3,0.8-0.5,1.3-0.5c0.5,0,1.1,0.2,1.4,0.6C36.3,32.6,36.2,33.8,35.5,34.6z   M78.5,43.8c3.3,0,6,2.7,6,6s-2.7,6-6,6s-6-2.7-6-6S75.2,43.8,78.5,43.8z M64.4,36.2c0.6-0.6,1.5-0.9,2.4-0.9c1,0,1.9,0.4,2.5,1.1  c1.3,1.4,1.2,3.6-0.2,4.9c-0.6,0.6-1.5,0.9-2.4,0.9c-1,0-1.9-0.4-2.5-1.1C62.9,39.6,63,37.5,64.4,36.2z M61.3,38.8  c0,1.3,0.5,2.6,1.5,3.6c1,1.1,2.5,1.7,4,1.7c1.3,0,2.5-0.5,3.5-1.3l2,2c-1,1.3-1.7,3-1.7,4.9c0,0.8,0.1,1.5,0.3,2.3l-14,6.1  c-1.1-1.8-2.9-3.1-5-3.5l1.2-17.3L61.3,38.8z M50.2,14.1c0-1.9,1.5-3.4,3.4-3.4s3.4,1.5,3.4,3.4s-1.5,3.4-3.4,3.4S50.2,16,50.2,14.1  z M40.9,53.4c-1.1,0-2-0.9-2-2c0-1.1,0.9-2,2-2s2,0.9,2,2C42.9,52.5,42,53.4,40.9,53.4z M54.5,87.3c0,1.9-1.5,3.4-3.4,3.4  s-3.4-1.5-3.4-3.4s1.5-3.4,3.4-3.4S54.5,85.4,54.5,87.3z M50.5,67.6c-3.1,0-5.6-2.5-5.6-5.6s2.5-5.6,5.6-5.6S56,59,56,62.1  S53.5,67.6,50.5,67.6z M89.2,73.4c-2,0-3.6-1.6-3.6-3.6s1.6-3.6,3.6-3.6s3.6,1.6,3.6,3.6S91.1,73.4,89.2,73.4z"/></g><g id="SvgjsG6190" featureKey="fNbRbf-0" transform="matrix(5.0157633685227925,0,0,5.0157633685227925,-4.213241994903898,122.91172322291048)" fill="#fff"><path d="M6.64 10.34 l0 2.78 l-2.8 0 l0 1.88 c0 1.54 1.02 2.32 2.5 2.32 c0.18 0 0.34 -0.02 0.48 -0.04 s0.26 -0.04 0.4 -0.06 l0 2.78 c-0.18 0.02 -0.32 0.06 -0.42 0.08 c-0.12 0.02 -0.32 0.02 -0.58 0.02 c-3.02 0 -5.38 -2.06 -5.38 -5.1 l0 -7.4 l3 0 l0 2.74 l2.8 0 z M15.78 15 c-0.08 -1.46 -0.74 -2.32 -2.26 -2.32 c-0.42 0 -0.78 0.06 -1.08 0.18 c-0.92 0.42 -1.26 1.2 -1.26 2.16 c0 0.32 0.04 0.62 0.14 0.88 c0.3 1.04 1.2 1.42 2.2 1.42 c1.52 0 2.26 -0.82 2.26 -2.32 z M19.58 20 l-3 0 c-0.2 -0.5 -0.38 -1 -0.5 -1.52 c-0.68 1.12 -1.72 1.62 -3 1.62 c-2.86 0 -4.9 -2.4 -4.9 -5.14 c0 -3.16 2.36 -5.06 5.34 -5.06 c3.18 0 5.18 2.04 5.26 5.1 c0.02 0.26 0.02 0.56 0.02 0.92 c0 1.4 0.22 2.8 0.78 4.08 z M20.68 6 l3 0 l0 14 l-3 0 l0 -14 z M32.58 15 l0 -5 l3 0 l0 9.48 c0 3.18 -2.28 5.12 -5.3 5.12 c-1.06 0 -2.12 -0.1 -3.14 -0.44 l0 -3.08 c0.86 0.46 2.02 0.62 2.98 0.62 c1.08 0 1.94 -0.32 2.34 -1.36 c0.08 -0.28 0.12 -0.58 0.12 -0.88 l0 -0.46 c-0.68 0.76 -1.56 1.1 -2.56 1.1 c-2.84 0 -4.64 -2.44 -4.64 -5.1 l0 -5 l3 0 l0 5 c0 1.36 0.54 2.32 2 2.32 c1.42 0 2.2 -0.94 2.2 -2.32 z M47.78 15 l0 5 l-3 0 l0 -5 c0 -1.38 -0.64 -2.32 -2.1 -2.32 c-1.44 0 -2.1 0.96 -2.1 2.32 l0 5 l-3 0 l0 -5 c0 -3.08 2.12 -5.1 5.1 -5.1 c3.1 0 5.1 2.12 5.1 5.1 z M53.28 18.38 c0 1.02 -0.7 1.72 -1.72 1.72 s-1.74 -0.68 -1.74 -1.72 c0 -1.02 0.72 -1.74 1.74 -1.74 c1.06 0 1.72 0.68 1.72 1.74 z M62.5 15 c-0.08 -1.46 -0.74 -2.32 -2.26 -2.32 c-0.42 0 -0.78 0.06 -1.08 0.18 c-0.92 0.42 -1.26 1.2 -1.26 2.16 c0 0.32 0.04 0.62 0.14 0.88 c0.3 1.04 1.2 1.42 2.2 1.42 c1.52 0 2.26 -0.82 2.26 -2.32 z M66.30000000000001 20 l-3 0 c-0.2 -0.5 -0.38 -1 -0.5 -1.52 c-0.68 1.12 -1.72 1.62 -3 1.62 c-2.86 0 -4.9 -2.4 -4.9 -5.14 c0 -3.16 2.36 -5.06 5.34 -5.06 c3.18 0 5.18 2.04 5.26 5.1 c0.02 0.26 0.02 0.56 0.02 0.92 c0 1.4 0.22 2.8 0.78 4.08 z M67.4 10 l3 0 l0 10 l-3 0 l0 -10 z M68.9 9.06 c-1.02 0 -1.74 -0.72 -1.74 -1.74 c0 -1.04 0.72 -1.72 1.74 -1.72 c1.04 0 1.72 0.68 1.72 1.72 c0 1.06 -0.66 1.74 -1.72 1.74 z"/></g><g id="SvgjsG6191" featureKey="gqtJpI-0" transform="matrix(0.8358881334193725,0,0,0.8358881334193725,33.93766099317472,250.71563158429856)" fill="#fff"><path d="M12.237 6.441000000000001 c0.15254 0 0.23729 0.067963 0.23729 0.22051 l0 13.119 c0 0.13559 -0.067797 0.22017 -0.20339 0.22017 l-0.6778 0 c-0.30508 0 -0.44068 -0.18644 -0.44068 -0.45763 l0 -5.5593 l-8.5593 0 l0 5.7797 c0 0.15254 -0.067797 0.23712 -0.22034 0.23712 l-0.86441 0 c-0.16966 0 -0.23746 -0.08458 -0.23746 -0.23712 l0 -13.102 c0 -0.15254 0.067797 -0.22034 0.22034 -0.22034 l0.88136 0 c0.13559 0 0.22034 0.067797 0.22034 0.22034 l0 6 l8.5593 0 l0 -6 c0 -0.15254 0.067797 -0.22034 0.20339 -0.22034 l0.88136 0 z M27.05764915254237 6.441000000000001 l-0.86441 0 c-0.15254 0 -0.22034 0.067797 -0.22034 0.22034 l0 13.119 c0 0.13559 0.067797 0.22017 0.22034 0.22017 l0.88136 0 c0.11864 0 0.20339 -0.08458 0.20339 -0.22017 l0 -13.119 c0 -0.15254 -0.084746 -0.22034 -0.22034 -0.22034 z M50.35208474576271 19.76288 c0.084746 0.13559 0.033732 0.23712 -0.11881 0.23712 l-0.88136 0 c-0.27119 0 -0.45763 -0.22017 -0.55932 -0.37271 l-3 -4.2542 l-0.050847 0 l-3.8814 0 l0 4.3898 c0 0.15254 -0.067797 0.23712 -0.23729 0.23712 l-0.88136 0 c-0.15254 0 -0.22034 -0.08458 -0.22034 -0.23712 l0 -13.102 c0 -0.15254 0.067797 -0.22034 0.22034 -0.22034 l5 0 c3.1695 0 4.6273 2.4576 4.6273 4.4746 c0 1.7288 -1.0508 3.7288 -3.2712 4.3051 z M41.86088474576271 7.728999999999999 l0.00016552 6.3727 l3.7797 0 c2.3051 0 3.4066 -1.6102 3.4066 -3.2203 c0 -1.5932 -1.1186 -3.1524 -3.4068 -3.1524 l-3.7797 0 z M64.51188644067797 6.441000000000001 l-0.86441 0 c-0.15254 0 -0.22034 0.067797 -0.22034 0.22034 l0 13.119 c0 0.13559 0.067797 0.22017 0.22034 0.22017 l0.88136 0 c0.11864 0 0.20339 -0.08458 0.20339 -0.22017 l0 -13.119 c0 -0.15254 -0.084746 -0.22034 -0.22034 -0.22034 z M89.6373220338983 6.441000000000001 c0.11864 0 0.20356 0.067631 0.20356 0.18627 l0 13.186 c0 0.11881 -0.084746 0.18644 -0.20339 0.18644 l-0.35593 0 c-0.25441 0 -0.49169 -0.16933 -0.81373 -0.52525 l-8.9153 -10.525 l0 10.831 c0 0.13559 -0.084746 0.22017 -0.22034 0.22017 l-0.88136 0 c-0.15254 0 -0.22034 -0.08458 -0.22034 -0.22017 l0 -13.136 c0 -0.11864 0.067797 -0.20339 0.20339 -0.20339 l0.55932 0 c0.11864 0 0.20339 0.050847 0.32203 0.18644 l9.2034 10.932 l0 -10.932 c0 -0.11864 0.067797 -0.18644 0.18644 -0.18644 l0.9322 0 z M114.49105084745763 14.5424 c0.16949 0 0.23746 0.067631 0.23746 0.23712 l0 3.0678 l-0.016949 0 c0 0.067797 -0.050847 0.16949 -0.13559 0.25424 c-1.2544 1.2542 -2.8814 2.0168 -4.8983 2.0168 c-3.8136 0 -6.9322 -3.0168 -6.9322 -6.8812 c0 -3.8475 3.1186 -6.9153 6.9322 -6.9153 c1.9322 0 3.661 0.74576 4.9322 2.0169 c0.15254 0.15254 0.16949 0.27119 0.067797 0.35593 l-0.71186 0.59322 c-0.11864 0.10169 -0.22034 0.10169 -0.33898 -0.016949 c-0.71186 -0.74559 -2.1186 -1.6608 -3.8475 -1.6608 c-3.678 0 -5.7119 2.9831 -5.7119 5.6271 c0 2.678 2.0339 5.5932 5.7119 5.5932 c1.5932 0 2.8475 -0.74576 3.61 -1.4407 l0 -1.5763 l-3.5763 0 c-0.15254 0 -0.22034 -0.067797 -0.22034 -0.20339 l0 -0.83051 c0 -0.16949 0.067797 -0.23729 0.22034 -0.23729 l4.678 0 z M142.60678203389833 17.729 l0.47441 -0.55932 c0.15238 -0.15254 0.30492 -0.13559 0.44051 -0.033898 c0.32203 0.27119 1.6441 1.7119 3.5254 1.7119 c2.2373 0 3.2203 -1.2203 3.2203 -2.4237 c0 -1.7288 -1.9663 -2.1864 -3.7459 -2.8305 c-2.0169 -0.76271 -3.7458 -1.678 -3.7458 -3.7119 c0 -1.6949 1.2373 -3.5593 4.2712 -3.5593 c2.0847 0 3.5932 1.2542 4 1.6102 c0.13559 0.11864 0.18644 0.27119 0.084912 0.40678 l-0.44068 0.57627 c-0.10169 0.13559 -0.23729 0.16949 -0.38983 0.067797 c-0.33898 -0.25424 -1.5592 -1.3898 -3.2371 -1.3898 c-1.8985 0 -2.9663 1 -2.9663 2.288 c0 1.4915 1.5086 2.0169 3.4917 2.7288 c1.8136 0.67797 4 1.5932 4 3.8305 c0 1.9661 -1.8303 3.6608 -4.5253 3.6608 c-2.4746 0 -4 -1.61 -4.3898 -1.9998 c-0.11864 -0.11864 -0.22034 -0.22034 -0.067797 -0.37271 z M165.6644288135593 6.441000000000001 l-0.86441 0 c-0.15254 0 -0.22034 0.067797 -0.22034 0.22034 l0 13.119 c0 0.13559 0.067797 0.22017 0.22034 0.22017 l0.88136 0 c0.11864 0 0.20339 -0.08458 0.20339 -0.22017 l0 -13.119 c0 -0.15254 -0.084746 -0.22034 -0.22034 -0.22034 z M194.75586440677966 6.441000000000001 c0.11864 0 0.20339 0.10186 0.20339 0.23746 l0 13.085 c0 0.15254 -0.084746 0.23712 -0.22034 0.23712 l-0.88136 0 c-0.16949 0 -0.23729 -0.08458 -0.23729 -0.23712 l0 -10.61 l-6.1697 10.407 c-0.067797 0.11864 -0.13559 0.16949 -0.25424 0.16949 l-0.067797 0 c-0.10169 0 -0.18644 -0.050847 -0.25424 -0.16949 l-6.1525 -10.407 l0 10.61 c0 0.15254 -0.084746 0.23712 -0.22034 0.23712 l-0.88136 0 c-0.15254 0 -0.23729 -0.08458 -0.23729 -0.23712 l0 -13.102 c0 -0.11881 0.067797 -0.22051 0.20339 -0.22051 l0.81356 0 c0.11864 0 0.18644 0.050847 0.25424 0.15271 l6.5086 10.983 l6.5254 -10.983 c0.050847 -0.10186 0.11864 -0.15271 0.27119 -0.15271 l0.79661 0 z M213.42369491525423 6.441000000000001 c3.0846 0 4.6437 2.4407 4.6437 4.4576 c0 2.0847 -1.5593 4.4746 -4.6439 4.4746 l-3.7966 0 l0 4.3898 c0 0.15254 -0.067797 0.23712 -0.20339 0.23712 l-0.91525 0 c-0.15238 0 -0.22017 -0.08458 -0.22017 -0.23712 l0 -13.102 c0 -0.15254 0.067797 -0.22034 0.22017 -0.22034 l4.9154 0 z M213.37269491525421 14.1019 c2.1864 0 3.3559 -1.6102 3.3559 -3.2034 s-1.1695 -3.1695 -3.3559 -3.1695 l-3.7456 0 l0 6.3729 l3.7456 0 z M238.70165762711864 18.712 c0.13559 0 0.20339 0.084912 0.20339 0.23729 l0 0.83051 c0 0.15254 -0.067797 0.22017 -0.20339 0.22017 l-7.9492 0 c-0.15254 0 -0.20339 -0.10153 -0.20339 -0.22017 l0 -13.119 c0 -0.15254 0.067797 -0.22034 0.22034 -0.22034 l0.89831 0 c0.13559 0 0.22034 0.067797 0.22034 0.22034 l0 12.051 l6.8136 0 z M253.14917457627118 6.441000000000001 l-0.86441 0 c-0.15254 0 -0.22034 0.067797 -0.22034 0.22034 l0 13.119 c0 0.13559 0.067797 0.22017 0.22034 0.22017 l0.88136 0 c0.11864 0 0.20339 -0.08458 0.20339 -0.22017 l0 -13.119 c0 -0.15254 -0.084746 -0.22034 -0.22034 -0.22034 z M274.9354101694915 6.441000000000001 c0.15254 0 0.23729 0.085076 0.23729 0.22068 l0 0.84746 c0 0.13559 -0.084746 0.22034 -0.23729 0.22034 l-7.1695 0 l0 4.9659 l4.3559 0 c0.13559 0 0.22034 0.067797 0.22034 0.23729 l0 0.81339 c0 0.15254 -0.067797 0.22034 -0.22034 0.22034 l-4.3559 0 l0 5.8136 c0 0.13559 -0.067797 0.22017 -0.20339 0.22017 l-0.67797 0 c-0.28797 0 -0.44051 -0.18644 -0.44051 -0.45763 l0 -12.881 c0 -0.15254 0.067797 -0.22034 0.22017 -0.22034 l8.2712 0 z M288.9932423728813 6.441000000000001 l-0.86441 0 c-0.15254 0 -0.22034 0.067797 -0.22034 0.22034 l0 13.119 c0 0.13559 0.067797 0.22017 0.22034 0.22017 l0.88136 0 c0.11864 0 0.20339 -0.08458 0.20339 -0.22017 l0 -13.119 c0 -0.15254 -0.084746 -0.22034 -0.22034 -0.22034 z M311.4065779661016 7.728999999999999 l-7.3556 0.00049656 l0 4.9659 l4.5424 0 c0.15254 0 0.23729 0.067797 0.23729 0.23729 l0 0.81339 c0 0.15254 -0.084746 0.22034 -0.23729 0.22034 l-4.5424 0 l0 4.7458 l7.3559 0 c0.15254 0 0.23712 0.084746 0.23712 0.23712 l0 0.81356 c0 0.16949 -0.067797 0.23712 -0.23729 0.23712 l-8.4746 0 c-0.15254 0 -0.22034 -0.08458 -0.22034 -0.22017 l0 -13.119 c0 -0.15254 0.084746 -0.22034 0.22034 -0.22034 l8.4746 0 c0.15254 0 0.23712 0.084746 0.23712 0.22034 l0 0.84746 c0 0.13559 -0.067797 0.22034 -0.23729 0.22034 z M329.3286542372881 6.441000000000001 c4.6271 0 6.9153 3.4239 6.9153 6.6949 c0 3.4576 -2.3051 6.8642 -6.8644 6.8642 l-4.6271 0 c-0.15254 0 -0.22034 -0.08458 -0.22034 -0.22017 l0 -13.119 c0 -0.15254 0.067797 -0.22034 0.22034 -0.22034 l4.5763 0 z M329.4472542372881 18.7122 c3.5422 0 5.4576 -2.7798 5.4407 -5.5764 c0 -2.7797 -1.8644 -5.4066 -5.4407 -5.4066 l-3.5932 0 l0.016949 10.983 l3.5763 0 z"/></g>
			</g>
		</svg>
	